<svg xmlns="http://www.w3.org/2000/svg" viewBox="0 0 58.5 88.92"><defs><style>.cls-1{fill:#2980b9;}.cls-2{fill:#3498db;}.cls-3{fill:#ecf0f1;}</style></defs><title>Asset 1</title><g id="Layer_2" data-name="Layer 2"><g id="Слой_1" data-name="Слой 1"><path class="cls-1" d="M58.5,4a4,4,0,0,0-4-4H4A4,4,0,0,0,0,4V7.9H58.5Z"/><rect class="cls-2" y="7.9" width="58.5" height="30.2"/><rect class="cls-3" y="38.1" width="58.5" height="42.3"/><path class="cls-1" d="M0,84.6A4.66,4.66,0,0,0,.7,87,3.81,3.81,0,0,0,4,88.92H54.5A3.81,3.81,0,0,0,57.8,87a4.66,4.66,0,0,0,.7-2.37V80.4H0Z"/><polygon class="cls-2" points="30.9 38.1 29.3 39.7 27.6 38.1 30.9 38.1"/><polygon class="cls-3" points="30.9 80.2 29.3 81.9 27.6 80.2 30.9 80.2"/></g></g></svg>