<svg xmlns="http://www.w3.org/2000/svg" viewBox="0 0 58.5 88.3"><defs><style>.cls-1{fill:#2980b9;}.cls-2{fill:#3498db;}.cls-3{fill:#ecf0f1;}.cls-4{isolation:isolate;}.cls-5{fill:#2c3e50;}</style></defs><title>Asset 1</title><g id="Layer_2" data-name="Layer 2"><g id="Слой_1" data-name="Слой 1"><path class="cls-1" d="M58.5,4a4,4,0,0,0-4-4H4A4,4,0,0,0,0,4V7.9H58.5Z"/><rect class="cls-2" y="7.9" width="58.5" height="30.2"/><rect class="cls-3" y="38.1" width="58.5" height="42.3"/><path class="cls-1" d="M0,84.3a4.1,4.1,0,0,0,.7,2.2A3.86,3.86,0,0,0,4,88.3H54.5a3.86,3.86,0,0,0,3.3-1.8,4.1,4.1,0,0,0,.7-2.2V80.4H0Z"/><polygon class="cls-2" points="30.9 38.1 29.3 39.7 27.6 38.1 30.9 38.1"/><polygon class="cls-3" points="30.9 80.2 29.3 81.9 27.6 80.2 30.9 80.2"/><g class="cls-4"><path class="cls-3" d="M22.2,20.5H18.74v4.22h-1V15.94H22.2v1H18.74v2.52H22.2Z"/><path class="cls-3" d="M26.16,18.28l-.52.84a.84.84,0,0,0-.4-.11.86.86,0,0,0-.67.37,2.43,2.43,0,0,0-.45,1A10.14,10.14,0,0,0,24,22.48v2.24H23V18.18h1v.71a2.54,2.54,0,0,1,.61-.66,1.18,1.18,0,0,1,.7-.22A1.91,1.91,0,0,1,26.16,18.28Z"/><path class="cls-3" d="M33.45,21.62H27.72a2.53,2.53,0,0,0,.73,1.73A2.19,2.19,0,0,0,30,24a2.6,2.6,0,0,0,2.4-1.55l.84.43a4.11,4.11,0,0,1-1.33,1.54,3.3,3.3,0,0,1-1.84.5,3.21,3.21,0,0,1-2.44-1,3.59,3.59,0,0,1,0-4.89,3.16,3.16,0,0,1,2.39-1,3.23,3.23,0,0,1,2.39,1A3.7,3.7,0,0,1,33.45,21.62Zm-1.1-.88a2.11,2.11,0,0,0-.82-1.31A2.41,2.41,0,0,0,30.07,19a2.2,2.2,0,0,0-2.23,1.78Z"/><path class="cls-3" d="M41.25,21.62H35.52a2.53,2.53,0,0,0,.73,1.73,2.19,2.19,0,0,0,1.59.65,2.6,2.6,0,0,0,2.4-1.55l.84.43a4.11,4.11,0,0,1-1.33,1.54,3.3,3.3,0,0,1-1.84.5,3.21,3.21,0,0,1-2.44-1,3.59,3.59,0,0,1,0-4.89,3.16,3.16,0,0,1,2.39-1,3.23,3.23,0,0,1,2.39,1A3.7,3.7,0,0,1,41.25,21.62Zm-1.1-.88a2.11,2.11,0,0,0-.82-1.31A2.41,2.41,0,0,0,37.87,19a2.2,2.2,0,0,0-2.23,1.78Z"/></g><g class="cls-4"><path class="cls-5" d="M14.27,33.15a1,1,0,0,1,.4.35.88.88,0,0,1,.14.48,1,1,0,0,1-.31.73,1.07,1.07,0,0,1-.78.31,1,1,0,0,1-.7-.25,1.28,1.28,0,0,1-.37-.73H13a.93.93,0,0,0,.24.46.66.66,0,0,0,.46.15.72.72,0,0,0,.51-.19.62.62,0,0,0,.2-.48.54.54,0,0,0-.23-.46,1.2,1.2,0,0,0-.68-.18V33a.9.9,0,0,0,.52-.14.41.41,0,0,0,.2-.34.44.44,0,0,0-.15-.34.54.54,0,0,0-.37-.14.51.51,0,0,0-.36.12,1,1,0,0,0-.23.38h-.38a1.17,1.17,0,0,1,.35-.64.91.91,0,0,1,.62-.22.93.93,0,0,1,.64.24.76.76,0,0,1,.27.59A.72.72,0,0,1,14.27,33.15Z"/><path class="cls-5" d="M16.12,31.69a.94.94,0,0,1,.81.43,2.15,2.15,0,0,1,.3,1.24,2.12,2.12,0,0,1-.3,1.23,1,1,0,0,1-.81.43.89.89,0,0,1-.79-.42,2.9,2.9,0,0,1,0-2.49A.9.9,0,0,1,16.12,31.69Zm0,3a.61.61,0,0,0,.55-.34,2,2,0,0,0,.2-1,1.89,1.89,0,0,0-.2-1,.62.62,0,0,0-.55-.34.59.59,0,0,0-.54.34,2,2,0,0,0-.19,1Q15.4,34.67,16.13,34.67Z"/><path class="cls-5" d="M18.77,31.76h.68a3.53,3.53,0,0,1,1,.1,1.4,1.4,0,0,1,.89.84,1.93,1.93,0,0,1,.12.71,1.67,1.67,0,0,1-.18.76,1.34,1.34,0,0,1-.51.56,1.88,1.88,0,0,1-1,.2h-1Zm.36,2.82h.33a4.1,4.1,0,0,0,.8-.06,1,1,0,0,0,.44-.22,1.05,1.05,0,0,0,.28-.39,1.47,1.47,0,0,0,0-1.1,1.06,1.06,0,0,0-.33-.42,1.16,1.16,0,0,0-.5-.22,4.7,4.7,0,0,0-.82-.05h-.19Z"/><path class="cls-5" d="M24.3,34.94H24v-.35a1.17,1.17,0,0,1-.89.43,1.15,1.15,0,0,1-.86-.37,1.23,1.23,0,0,1-.36-.88,1.21,1.21,0,0,1,.36-.88,1.19,1.19,0,0,1,.88-.37,1.09,1.09,0,0,1,.87.42v-.36h.35Zm-1.21-.26a.85.85,0,0,0,.62-.26.88.88,0,0,0,.26-.65.89.89,0,0,0-.26-.65.84.84,0,0,0-.63-.26.83.83,0,0,0-.63.27.9.9,0,0,0-.26.64.89.89,0,0,0,.26.64A.83.83,0,0,0,23.09,34.68Z"/><path class="cls-5" d="M26.93,32.57l-1.4,3.2h-.37l.46-1-1-2.16H25l.78,1.73.75-1.73Z"/><path class="cls-5" d="M30,33.41H28.74v1.53h-.37V31.76H30v.37H28.74V33H30Z"/><path class="cls-5" d="M31.42,32.61l-.19.3a.29.29,0,0,0-.39.09.88.88,0,0,0-.16.35,3.67,3.67,0,0,0-.05.77v.81h-.36V32.57h.36v.26a.92.92,0,0,1,.22-.24.43.43,0,0,1,.25-.08A.69.69,0,0,1,31.42,32.61Z"/><path class="cls-5" d="M34.06,33.82H32a.92.92,0,0,0,.26.63.79.79,0,0,0,.57.24.94.94,0,0,0,.87-.56l.3.16a1.47,1.47,0,0,1-.48.56,1.19,1.19,0,0,1-.66.18,1.16,1.16,0,0,1-.88-.37,1.3,1.3,0,0,1,0-1.77,1.14,1.14,0,0,1,.87-.37,1.17,1.17,0,0,1,.86.35A1.34,1.34,0,0,1,34.06,33.82Zm-.4-.32a.76.76,0,0,0-.29-.47.87.87,0,0,0-.53-.17.8.8,0,0,0-.81.64Z"/><path class="cls-5" d="M36.87,33.82H34.8a.91.91,0,0,0,.26.63.79.79,0,0,0,.57.24.94.94,0,0,0,.87-.56l.3.16a1.48,1.48,0,0,1-.48.56,1.19,1.19,0,0,1-.66.18,1.16,1.16,0,0,1-.88-.37,1.3,1.3,0,0,1,0-1.77,1.15,1.15,0,0,1,.87-.37,1.17,1.17,0,0,1,.86.35A1.35,1.35,0,0,1,36.87,33.82Zm-.4-.32a.77.77,0,0,0-.29-.47.87.87,0,0,0-.53-.17.8.8,0,0,0-.81.64Z"/><path class="cls-5" d="M40,32.13h-.69v2.81h-.38V32.13h-.7v-.36H40Z"/><path class="cls-5" d="M41.29,32.61l-.19.3a.29.29,0,0,0-.39.09.88.88,0,0,0-.16.35,3.69,3.69,0,0,0-.05.77v.81h-.36V32.57h.36v.26a.91.91,0,0,1,.22-.24.43.43,0,0,1,.25-.08A.7.7,0,0,1,41.29,32.61Z"/><path class="cls-5" d="M41.73,31.69a.28.28,0,1,1,0,.55.26.26,0,0,1-.2-.08.27.27,0,0,1,0-.39A.26.26,0,0,1,41.73,31.69Zm.18,3.25h-.36V32.57h.36Z"/><path class="cls-5" d="M44.82,34.94h-.35v-.35a1.17,1.17,0,0,1-.89.43,1.15,1.15,0,0,1-.86-.37,1.23,1.23,0,0,1-.36-.88,1.21,1.21,0,0,1,.36-.88,1.19,1.19,0,0,1,.88-.37,1.09,1.09,0,0,1,.87.42v-.36h.35Zm-1.21-.26a.85.85,0,0,0,.62-.26.88.88,0,0,0,.26-.65.89.89,0,0,0-.26-.65.84.84,0,0,0-.63-.26.83.83,0,0,0-.63.27.9.9,0,0,0-.26.64.89.89,0,0,0,.26.64A.83.83,0,0,0,43.61,34.68Z"/><path class="cls-5" d="M45.74,34.94h-.36V31.69h.36Z"/></g><g class="cls-4"><path class="cls-3" d="M24.63,85.77a1.32,1.32,0,0,1-1.9.13,1.24,1.24,0,0,1-.19-1.47A1.14,1.14,0,0,1,23,84a1.26,1.26,0,0,1,.62-.16,1.34,1.34,0,0,1,.59.13,1.15,1.15,0,0,1,.44.37l-.21.16a1,1,0,0,0-.8-.39.93.93,0,0,0-.67.28.9.9,0,0,0-.28.67.89.89,0,0,0,.28.67,1,1,0,0,0,1.48-.11Z"/><path class="cls-3" d="M25.21,86.19H25V83.84h.26Z"/><path class="cls-3" d="M25.71,83.84a.19.19,0,0,1,.14.06.19.19,0,0,1,.06.14.2.2,0,0,1-.2.2.19.19,0,0,1-.14-.06.19.19,0,0,1-.06-.14.19.19,0,0,1,.06-.14A.19.19,0,0,1,25.71,83.84Zm.13,2.35h-.26v-1.7h.26Z"/><path class="cls-3" d="M27.9,85.84a.87.87,0,0,1-.35.3,1.09,1.09,0,0,1-.47.1.9.9,0,0,1-.66-.26.86.86,0,0,1-.26-.63.88.88,0,0,1,.27-.64.92.92,0,0,1,.69-.27,1,1,0,0,1,.46.11.81.81,0,0,1,.33.31l-.2.13a.72.72,0,0,0-.6-.3.68.68,0,0,0-.49.19.61.61,0,0,0-.2.46.65.65,0,0,0,.19.47.66.66,0,0,0,.49.2.74.74,0,0,0,.6-.3Z"/><path class="cls-3" d="M29.6,86.19h-.37l-.8-.72v.72h-.26V83.84h.26v1.29l.73-.64h.38l-.94.81Z"/><path class="cls-3" d="M33.12,86.19h-.27l-.21-1.56-.77,1.56h-.08L31,84.62l-.21,1.57h-.26l.33-2.29h.07l.9,1.82.89-1.82h.07Z"/><path class="cls-3" d="M35.16,85.38H33.67a.66.66,0,0,0,.19.45.57.57,0,0,0,.42.17.68.68,0,0,0,.63-.4l.22.11a1.07,1.07,0,0,1-.35.4.87.87,0,0,1-.48.13.84.84,0,0,1-.63-.26.94.94,0,0,1,0-1.27.83.83,0,0,1,.62-.27.84.84,0,0,1,.62.25A1,1,0,0,1,35.16,85.38Zm-.29-.23a.55.55,0,0,0-.21-.34.63.63,0,0,0-.38-.12.57.57,0,0,0-.58.46Z"/><path class="cls-3" d="M35.76,85.65a.21.21,0,0,1,.15.06.21.21,0,0,1,0,.3.21.21,0,0,1-.36-.15.2.2,0,0,1,.06-.15A.2.2,0,0,1,35.76,85.65Zm.13-.25h-.27V83.69h.27Z"/></g></g></g></svg>