<svg xmlns="http://www.w3.org/2000/svg" viewBox="0 0 58.5 88.3"><defs><style>.cls-1{fill:#2980b9;}.cls-2{fill:#3498db;}.cls-3{fill:#ecf0f1;}.cls-4{isolation:isolate;}.cls-5{fill:#2c3e50;}</style></defs><title>Asset 3</title><g id="Layer_2" data-name="Layer 2"><g id="Слой_1" data-name="Слой 1"><path class="cls-1" d="M58.5,4a4,4,0,0,0-4-4H4A4,4,0,0,0,0,4V7.9H58.5Z"/><rect class="cls-2" y="7.9" width="58.5" height="30.2"/><rect class="cls-3" y="38.1" width="58.5" height="42.3"/><path class="cls-1" d="M0,84.3a4.1,4.1,0,0,0,.7,2.2A3.86,3.86,0,0,0,4,88.3H54.5a3.86,3.86,0,0,0,3.3-1.8,4.1,4.1,0,0,0,.7-2.2V80.4H0v3.9Z"/><polygon class="cls-2" points="30.9 38.1 29.2 39.7 27.6 38.1 30.9 38.1"/><polygon class="cls-3" points="30.9 80.2 29.2 81.9 27.6 80.2 30.9 80.2"/><g class="cls-4"><path class="cls-3" d="M9.16,25.58H8.37v-.84A2.65,2.65,0,0,1,6.44,24a2.14,2.14,0,0,1-.52-1.39v-.06H7v.06a1.21,1.21,0,0,0,.26.8,1.82,1.82,0,0,0,1.14.44V20.93l-.31-.14a3.46,3.46,0,0,1-1.48-1,2.09,2.09,0,0,1-.38-1.25,2.39,2.39,0,0,1,.23-1.07,2,2,0,0,1,.68-.79,2.78,2.78,0,0,1,1.25-.41V15.4h.79v.88a2.14,2.14,0,0,1,1.54.58,1.63,1.63,0,0,1,.4,1v0h-1v0a.61.61,0,0,0-.23-.49,1.48,1.48,0,0,0-.68-.28v3l.44.16a5.3,5.3,0,0,1,.94.53,1.66,1.66,0,0,1,.59.7,2.09,2.09,0,0,1,.17.83,2.52,2.52,0,0,1-.23,1.06,2.41,2.41,0,0,1-.67.87,2.49,2.49,0,0,1-1.23.48ZM8.37,19.8V17.11a1.36,1.36,0,0,0-.9.51,1.52,1.52,0,0,0-.28.89,1.08,1.08,0,0,0,.2.67,2.15,2.15,0,0,0,.78.55Zm.79,1.43v2.6a1.29,1.29,0,0,0,.69-.25,1.16,1.16,0,0,0,.33-.48,1.73,1.73,0,0,0,.11-.61,1.15,1.15,0,0,0-.2-.68,1.54,1.54,0,0,0-.68-.49Z"/><path class="cls-3" d="M15.87,24.72h-1V16.95H13.42l.62-1h1.82Z"/><path class="cls-3" d="M21.8,15.72A2.6,2.6,0,0,1,24,16.91a6,6,0,0,1,.83,3.42A5.87,5.87,0,0,1,24,23.75a2.62,2.62,0,0,1-2.25,1.19,2.47,2.47,0,0,1-2.18-1.17,6.28,6.28,0,0,1-.77-3.44,6.24,6.24,0,0,1,.77-3.44A2.49,2.49,0,0,1,21.8,15.72Zm0,8.27a1.69,1.69,0,0,0,1.53-1,5.5,5.5,0,0,0,.55-2.71,5.25,5.25,0,0,0-.56-2.69,1.71,1.71,0,0,0-1.52-.94,1.63,1.63,0,0,0-1.48.94,5.61,5.61,0,0,0-.53,2.71Q19.8,24,21.82,24Z"/><path class="cls-3" d="M27,22.67a.77.77,0,0,1,.57.23.83.83,0,0,1,0,1.15.77.77,0,0,1-.56.23.78.78,0,0,1-.57-.24.79.79,0,0,1-.24-.58.77.77,0,0,1,.24-.57A.78.78,0,0,1,27,22.67Z"/><path class="cls-3" d="M32.21,21a3,3,0,0,1-.7.08,2.38,2.38,0,0,1-1.79-.76A2.66,2.66,0,0,1,29,18.43a2.59,2.59,0,0,1,.8-1.93,2.72,2.72,0,0,1,2-.78,2.57,2.57,0,0,1,1.93.8,2.66,2.66,0,0,1,.77,1.91,3.23,3.23,0,0,1-.25,1.23A7.64,7.64,0,0,1,33.48,21l-2.65,4L30,24.42Zm-.48-.84A1.66,1.66,0,0,0,33,19.68a1.72,1.72,0,0,0,0-2.44,1.73,1.73,0,1,0-1.22,2.95Z"/><path class="cls-3" d="M38.86,21a3,3,0,0,1-.7.08,2.38,2.38,0,0,1-1.79-.76,2.66,2.66,0,0,1-.73-1.91,2.59,2.59,0,0,1,.8-1.93,2.72,2.72,0,0,1,2-.78,2.57,2.57,0,0,1,1.93.8,2.66,2.66,0,0,1,.77,1.91,3.23,3.23,0,0,1-.25,1.23A7.64,7.64,0,0,1,40.13,21l-2.65,4-.86-.55Zm-.48-.84a1.66,1.66,0,0,0,1.22-.51,1.72,1.72,0,0,0,0-2.44,1.73,1.73,0,1,0-1.22,2.95Z"/></g><g class="cls-4"><path class="cls-3" d="M41.65,22l-1.21,3.4h-.36L41.29,22Z"/><path class="cls-3" d="M45.24,25.2H44.9V24a1.86,1.86,0,0,0,0-.42.42.42,0,0,0-.15-.22.48.48,0,0,0-.3-.09.59.59,0,0,0-.35.12.62.62,0,0,0-.23.33,2.19,2.19,0,0,0-.06.61v.86h-.33V24.08a2.33,2.33,0,0,0,0-.47.42.42,0,0,0-.15-.24.45.45,0,0,0-.29-.09.57.57,0,0,0-.33.11.66.66,0,0,0-.24.29,1.64,1.64,0,0,0-.08.59v.93H42V23h.33v.31A.85.85,0,0,1,43,23a.74.74,0,0,1,.42.12.67.67,0,0,1,.27.35,1,1,0,0,1,.34-.35.84.84,0,0,1,.43-.12.73.73,0,0,1,.53.22,1.18,1.18,0,0,1,.22.83Z"/><path class="cls-3" d="M46.8,23a1.08,1.08,0,0,1,.8.34,1.18,1.18,0,0,1,0,1.63,1.14,1.14,0,0,1-1.62,0,1.18,1.18,0,0,1,0-1.63A1.09,1.09,0,0,1,46.8,23Zm0,2a.76.76,0,0,0,.57-.24.81.81,0,0,0,.23-.59.83.83,0,0,0-.24-.59.76.76,0,0,0-1.13,0,.84.84,0,0,0-.24.59.82.82,0,0,0,.23.59A.76.76,0,0,0,46.8,25Z"/><path class="cls-3" d="M48.72,24.51a.27.27,0,0,1,.27.27.26.26,0,0,1-.08.19.26.26,0,0,1-.19.08.27.27,0,0,1-.27-.27.25.25,0,0,1,.08-.19A.26.26,0,0,1,48.72,24.51Z"/></g><g class="cls-4"><path class="cls-5" d="M20.42,31.76h.65a3.83,3.83,0,0,1,.73,0,.86.86,0,0,1,.32.16.79.79,0,0,1,.23.28.86.86,0,0,1,.08.38.89.89,0,0,1-.08.38.72.72,0,0,1-.23.28.92.92,0,0,1-.37.16,4.32,4.32,0,0,1-.77,0h-.19v1.45h-.37Zm.37,1.37h.49a.87.87,0,0,0,.6-.14.48.48,0,0,0,.16-.37q0-.49-.73-.49h-.52Z"/><path class="cls-5" d="M23.93,32.61l-.19.3a.29.29,0,0,0-.39.09.88.88,0,0,0-.16.35,3.69,3.69,0,0,0-.05.77v.81h-.36V32.57h.36v.26a.91.91,0,0,1,.22-.24.43.43,0,0,1,.25-.08A.7.7,0,0,1,23.93,32.61Z"/><path class="cls-5" d="M26.57,33.82H24.5a.91.91,0,0,0,.26.63.79.79,0,0,0,.57.24.94.94,0,0,0,.87-.56l.3.16a1.48,1.48,0,0,1-.48.56,1.19,1.19,0,0,1-.66.18,1.16,1.16,0,0,1-.88-.37,1.3,1.3,0,0,1,0-1.77,1.15,1.15,0,0,1,.87-.37,1.17,1.17,0,0,1,.86.35A1.35,1.35,0,0,1,26.57,33.82Zm-.4-.32a.77.77,0,0,0-.29-.47.87.87,0,0,0-.53-.17.8.8,0,0,0-.81.64Z"/><path class="cls-5" d="M30.56,34.94H30.2V33.65a2,2,0,0,0,0-.45A.44.44,0,0,0,30,33a.51.51,0,0,0-.33-.1.64.64,0,0,0-.38.13.68.68,0,0,0-.25.35A2.39,2.39,0,0,0,29,34v.93h-.35V33.73a2.5,2.5,0,0,0,0-.51.45.45,0,0,0-.16-.26.49.49,0,0,0-.32-.1.62.62,0,0,0-.36.12.72.72,0,0,0-.25.31,1.78,1.78,0,0,0-.08.64v1h-.36V32.57h.36v.33a.92.92,0,0,1,.76-.39.8.8,0,0,1,.45.13.73.73,0,0,1,.29.38,1.06,1.06,0,0,1,.37-.38.9.9,0,0,1,.47-.13.78.78,0,0,1,.58.24,1.27,1.27,0,0,1,.24.9Z"/><path class="cls-5" d="M31.26,31.69a.28.28,0,0,1,.2.47.26.26,0,0,1-.2.08.26.26,0,0,1-.19-.08.27.27,0,0,1,0-.39A.26.26,0,0,1,31.26,31.69Zm.18,3.25h-.36V32.57h.36Z"/><path class="cls-5" d="M34,34.94h-.36v-.36a1.06,1.06,0,0,1-.83.42.84.84,0,0,1-.46-.13.81.81,0,0,1-.31-.36,1.83,1.83,0,0,1-.1-.71V32.57h.36V33.7a2.49,2.49,0,0,0,0,.53.69.69,0,0,0,.11.24.43.43,0,0,0,.18.15.71.71,0,0,0,.58,0,.77.77,0,0,0,.26-.22.81.81,0,0,0,.15-.29,2.9,2.9,0,0,0,0-.62v-.88H34Z"/><path class="cls-5" d="M38.13,34.94h-.36V33.65a2,2,0,0,0,0-.45.44.44,0,0,0-.16-.24.51.51,0,0,0-.33-.1.64.64,0,0,0-.38.13.68.68,0,0,0-.25.35,2.39,2.39,0,0,0-.07.66v.93H36.2V33.73a2.5,2.5,0,0,0,0-.51A.45.45,0,0,0,36,33a.49.49,0,0,0-.32-.1.62.62,0,0,0-.36.12.72.72,0,0,0-.25.31,1.78,1.78,0,0,0-.08.64v1h-.36V32.57H35v.33a.92.92,0,0,1,.76-.39.8.8,0,0,1,.45.13.73.73,0,0,1,.29.38,1.06,1.06,0,0,1,.37-.38.9.9,0,0,1,.47-.13.78.78,0,0,1,.58.24,1.27,1.27,0,0,1,.24.9Z"/></g><g class="cls-4"><path class="cls-2" d="M8.35,45.38h-1v-.27h1Z"/><path class="cls-2" d="M10.6,46.32H10.3V45.08H9v1.24H8.73V43.7H9v1.08H10.3V43.7h.31Z"/><path class="cls-2" d="M11.25,43.63a.23.23,0,1,1,0,.46.21.21,0,0,1-.16-.07.23.23,0,0,1,0-.32A.21.21,0,0,1,11.25,43.63Zm.15,2.69h-.3v-2h.3Z"/><path class="cls-2" d="M13.81,45.86a1.84,1.84,0,0,1-.07.57.8.8,0,0,1-.2.32.88.88,0,0,1-.32.2,1.22,1.22,0,0,1-.41.07,1,1,0,0,1-1-.65h.32a.73.73,0,0,0,.69.37.89.89,0,0,0,.4-.09.52.52,0,0,0,.25-.23,1,1,0,0,0,.07-.44v0a.91.91,0,0,1-.34.24,1,1,0,0,1-.41.08,1,1,0,0,1-.71-.29,1,1,0,0,1,0-1.39,1,1,0,0,1,.71-.29,1,1,0,0,1,.72.34v-.29h.3Zm-.29-.55a.68.68,0,0,0-.21-.51.7.7,0,0,0-.5-.2.71.71,0,0,0-.53.22.7.7,0,0,0-.21.5.65.65,0,0,0,.2.49.79.79,0,0,0,1,0A.66.66,0,0,0,13.52,45.31Z"/><path class="cls-2" d="M16,46.32h-.3v-.93a3.12,3.12,0,0,0,0-.38.59.59,0,0,0-.07-.21.39.39,0,0,0-.16-.15.51.51,0,0,0-.24-.05.57.57,0,0,0-.26.06.65.65,0,0,0-.21.18.7.7,0,0,0-.12.24,2.49,2.49,0,0,0,0,.52v.72h-.3V43.63h.3v1a.88.88,0,0,1,.69-.34.7.7,0,0,1,.38.11.68.68,0,0,1,.26.3,1.54,1.54,0,0,1,.09.59Z"/><path class="cls-2" d="M17.31,45.38h-1v-.27h1Z"/><path class="cls-2" d="M19.43,46.32H19l-.92-1.2H18v1.2H17.7V43.7h.54a3.13,3.13,0,0,1,.59,0,.74.74,0,0,1,.28.13.62.62,0,0,1,.19.23.72.72,0,0,1,.07.31.66.66,0,0,1-.22.52.94.94,0,0,1-.64.2ZM18,44.82h.42a.84.84,0,0,0,.47-.1.35.35,0,0,0,.15-.32.35.35,0,0,0-.15-.32.84.84,0,0,0-.46-.1H18Z"/><path class="cls-2" d="M21.75,45.39H20a.76.76,0,0,0,.22.52.66.66,0,0,0,.48.2.78.78,0,0,0,.72-.46l.25.13a1.22,1.22,0,0,1-.4.46,1,1,0,0,1-.55.15,1,1,0,0,1-.73-.3,1.07,1.07,0,0,1,0-1.46,1,1,0,0,1,.72-.3,1,1,0,0,1,.71.29A1.1,1.1,0,0,1,21.75,45.39Zm-.33-.26a.63.63,0,0,0-.24-.39.72.72,0,0,0-.44-.14.66.66,0,0,0-.67.53Z"/><path class="cls-2" d="M23.17,44.59l-.19.2a.6.6,0,0,0-.39-.2.26.26,0,0,0-.19.07.22.22,0,0,0-.08.17.24.24,0,0,0,.08.18,1.54,1.54,0,0,0,.3.19,1.11,1.11,0,0,1,.33.25.49.49,0,0,1,.12.33.58.58,0,0,1-.17.42.59.59,0,0,1-.43.17.72.72,0,0,1-.59-.3l.19-.21a.53.53,0,0,0,.39.23.33.33,0,0,0,.23-.09.28.28,0,0,0,.1-.21.26.26,0,0,0-.09-.2,1.4,1.4,0,0,0-.3-.19,1,1,0,0,1-.32-.24.51.51,0,0,1-.11-.34.49.49,0,0,1,.16-.36.57.57,0,0,1,.41-.15A.82.82,0,0,1,23.17,44.59Z"/><path class="cls-2" d="M24.47,44.32a1,1,0,0,1,.72.3,1.05,1.05,0,0,1,0,1.46,1,1,0,0,1-1.45,0,1.05,1.05,0,0,1,0-1.46A1,1,0,0,1,24.47,44.32Zm0,1.79a.68.68,0,0,0,.51-.22.73.73,0,0,0,.21-.52.75.75,0,0,0-.21-.53.68.68,0,0,0-.51-.22.67.67,0,0,0-.5.22.75.75,0,0,0-.21.53.73.73,0,0,0,.21.52A.68.68,0,0,0,24.47,46.1Z"/><path class="cls-2" d="M26.15,46.32h-.29V43.63h.29Z"/><path class="cls-2" d="M28.3,46.32H28V46a.87.87,0,0,1-.69.34.7.7,0,0,1-.38-.11.68.68,0,0,1-.26-.3,1.52,1.52,0,0,1-.09-.59v-1h.29v.93a2.06,2.06,0,0,0,0,.44.57.57,0,0,0,.09.2.36.36,0,0,0,.15.12.59.59,0,0,0,.48,0,.65.65,0,0,0,.22-.18.68.68,0,0,0,.12-.24,2.42,2.42,0,0,0,0-.52v-.72h.3Z"/><path class="cls-2" d="M29.69,44.62H29.3V46s0,.08,0,.09l.11,0h.17v.25l-.26,0a.34.34,0,0,1-.25-.08A.37.37,0,0,1,29,46V44.62h-.34v-.26H29v-.73h.3v.73h.39Z"/><path class="cls-2" d="M30.12,43.63a.23.23,0,0,1,.16.39.22.22,0,0,1-.16.07A.21.21,0,0,1,30,44a.23.23,0,0,1,0-.32A.22.22,0,0,1,30.12,43.63Zm.15,2.69H30v-2h.3Z"/><path class="cls-2" d="M31.65,44.32a1,1,0,0,1,.72.3,1.05,1.05,0,0,1,0,1.46,1,1,0,0,1-1.45,0,1.05,1.05,0,0,1,0-1.46A1,1,0,0,1,31.65,44.32Zm0,1.79a.68.68,0,0,0,.51-.22.73.73,0,0,0,.21-.52.74.74,0,0,0-.21-.53.68.68,0,0,0-1,0,.75.75,0,0,0-.21.53.73.73,0,0,0,.2.52A.68.68,0,0,0,31.65,46.1Z"/><path class="cls-2" d="M34.79,46.32h-.29v-.93a2.06,2.06,0,0,0,0-.44.57.57,0,0,0-.09-.2.36.36,0,0,0-.15-.12.59.59,0,0,0-.48,0,.65.65,0,0,0-.22.18.68.68,0,0,0-.12.24,2.42,2.42,0,0,0,0,.52v.72h-.3v-2h.3v.29a.88.88,0,0,1,.69-.34.7.7,0,0,1,.38.11.69.69,0,0,1,.26.3,1.52,1.52,0,0,1,.09.59Z"/><path class="cls-2" d="M37.5,46.32H36.2V43.7h.31V46h1Z"/><path class="cls-2" d="M38.74,44.32a1,1,0,0,1,.72.3,1.05,1.05,0,0,1,0,1.46,1,1,0,0,1-1.45,0,1.05,1.05,0,0,1,0-1.46A1,1,0,0,1,38.74,44.32Zm0,1.79a.68.68,0,0,0,.51-.22.73.73,0,0,0,.21-.52.74.74,0,0,0-.21-.53.68.68,0,0,0-1,0,.75.75,0,0,0-.21.53.73.73,0,0,0,.2.52A.68.68,0,0,0,38.74,46.1Z"/><path class="cls-2" d="M42.12,45.86a1.84,1.84,0,0,1-.07.57.8.8,0,0,1-.2.32.88.88,0,0,1-.32.2,1.22,1.22,0,0,1-.41.07,1,1,0,0,1-1-.65h.32a.73.73,0,0,0,.69.37.89.89,0,0,0,.4-.09.52.52,0,0,0,.25-.23,1,1,0,0,0,.07-.44v0a.91.91,0,0,1-.34.24,1,1,0,0,1-.41.08,1,1,0,0,1-.71-.29,1,1,0,0,1,0-1.39,1,1,0,0,1,.71-.29,1,1,0,0,1,.72.34v-.29h.3Zm-.29-.55a.68.68,0,0,0-.21-.51.7.7,0,0,0-.5-.2.71.71,0,0,0-.53.22.7.7,0,0,0-.21.5.65.65,0,0,0,.2.49.79.79,0,0,0,1,0A.66.66,0,0,0,41.83,45.31Z"/><path class="cls-2" d="M43.5,44.32a1,1,0,0,1,.72.3,1.05,1.05,0,0,1,0,1.46,1,1,0,0,1-1.45,0,1.05,1.05,0,0,1,0-1.46A1,1,0,0,1,43.5,44.32Zm0,1.79a.68.68,0,0,0,.51-.22.73.73,0,0,0,.21-.52.75.75,0,0,0-.21-.53.68.68,0,0,0-.51-.22.67.67,0,0,0-.5.22.75.75,0,0,0-.21.53.73.73,0,0,0,.21.52A.68.68,0,0,0,43.5,46.1Z"/></g><g class="cls-4"><path class="cls-2" d="M8.35,51.38h-1v-.27h1Z"/><path class="cls-2" d="M11.19,51.84a1.39,1.39,0,0,1-1.16.54A1.39,1.39,0,0,1,9,52a1.42,1.42,0,0,1-.21-1.69,1.32,1.32,0,0,1,.51-.5,1.44,1.44,0,0,1,.7-.18,1.53,1.53,0,0,1,.68.14,1.32,1.32,0,0,1,.5.43l-.24.18a1.15,1.15,0,0,0-.92-.45,1.07,1.07,0,0,0-.77.32,1,1,0,0,0-.32.77,1,1,0,0,0,.32.76,1.17,1.17,0,0,0,1.7-.13Z"/><path class="cls-2" d="M12.53,50.32a1,1,0,0,1,.72.3,1.05,1.05,0,0,1,0,1.46,1,1,0,0,1-1.45,0,1.05,1.05,0,0,1,0-1.46A1,1,0,0,1,12.53,50.32Zm0,1.79a.68.68,0,0,0,.51-.22.73.73,0,0,0,.21-.52.75.75,0,0,0-.21-.53.68.68,0,0,0-.51-.22.67.67,0,0,0-.5.22.75.75,0,0,0-.21.53.73.73,0,0,0,.21.52A.68.68,0,0,0,12.53,52.1Z"/><path class="cls-2" d="M16.85,52.32h-.3V51.25a1.63,1.63,0,0,0,0-.37.37.37,0,0,0-.13-.2.42.42,0,0,0-.27-.08.53.53,0,0,0-.31.11.55.55,0,0,0-.2.29,2,2,0,0,0-.06.55v.77h-.29v-1a2.12,2.12,0,0,0,0-.42.38.38,0,0,0-.13-.21.41.41,0,0,0-.26-.08.51.51,0,0,0-.3.1.6.6,0,0,0-.21.26,1.49,1.49,0,0,0-.07.53v.83H14v-2h.29v.28a.76.76,0,0,1,.63-.33.66.66,0,0,1,.37.11.6.6,0,0,1,.24.31.87.87,0,0,1,.3-.31.76.76,0,0,1,.39-.11.65.65,0,0,1,.48.2,1.06,1.06,0,0,1,.2.74Z"/><path class="cls-2" d="M20.21,52.32h-.3V51.25a1.63,1.63,0,0,0,0-.37.37.37,0,0,0-.13-.2.42.42,0,0,0-.27-.08.53.53,0,0,0-.31.11A.55.55,0,0,0,19,51a2,2,0,0,0-.06.55v.77h-.29v-1a2.12,2.12,0,0,0,0-.42.38.38,0,0,0-.13-.21.41.41,0,0,0-.26-.08.51.51,0,0,0-.3.1.6.6,0,0,0-.21.26,1.49,1.49,0,0,0-.07.53v.83h-.29v-2h.29v.28a.76.76,0,0,1,.63-.33.66.66,0,0,1,.37.11.6.6,0,0,1,.24.31.87.87,0,0,1,.3-.31.76.76,0,0,1,.39-.11.65.65,0,0,1,.48.2,1.06,1.06,0,0,1,.2.74Z"/><path class="cls-2" d="M22.61,51.39H20.89a.75.75,0,0,0,.22.52.66.66,0,0,0,.47.2.78.78,0,0,0,.72-.46l.25.13a1.22,1.22,0,0,1-.4.46,1,1,0,0,1-.55.15,1,1,0,0,1-.73-.3,1.07,1.07,0,0,1,0-1.46.94.94,0,0,1,.71-.3,1,1,0,0,1,.71.29A1.11,1.11,0,0,1,22.61,51.39Zm-.33-.26a.63.63,0,0,0-.24-.39.72.72,0,0,0-.44-.14.66.66,0,0,0-.67.53Z"/><path class="cls-2" d="M23.84,50.39l-.15.25a.25.25,0,0,0-.12,0,.26.26,0,0,0-.2.11.72.72,0,0,0-.13.29,3,3,0,0,0,0,.64v.67h-.3v-2h.3v.21a.77.77,0,0,1,.18-.2.35.35,0,0,1,.21-.06A.57.57,0,0,1,23.84,50.39Z"/><path class="cls-2" d="M26,51.92a1,1,0,0,1-.4.34,1.25,1.25,0,0,1-.54.12,1,1,0,0,1-.75-.3,1,1,0,0,1-.3-.73,1,1,0,0,1,.3-.74,1.07,1.07,0,0,1,.79-.31,1.13,1.13,0,0,1,.53.13.93.93,0,0,1,.38.35l-.23.15a.82.82,0,0,0-.69-.34.79.79,0,0,0-.56.21.7.7,0,0,0-.23.53.75.75,0,0,0,.22.54.76.76,0,0,0,.56.23.86.86,0,0,0,.69-.34Z"/><path class="cls-2" d="M26.52,49.63a.23.23,0,0,1,.16.39.22.22,0,0,1-.16.07.21.21,0,0,1-.16-.07.23.23,0,0,1,0-.32A.22.22,0,0,1,26.52,49.63Zm.15,2.69h-.3v-2h.3Z"/><path class="cls-2" d="M29.08,52.32h-.29V52a1,1,0,0,1-.74.35,1,1,0,0,1-.71-.31,1,1,0,0,1-.3-.73,1,1,0,0,1,.3-.73,1,1,0,0,1,.73-.3.9.9,0,0,1,.72.35v-.3h.29Zm-1-.21a.7.7,0,0,0,.51-.21.73.73,0,0,0,.21-.54.74.74,0,0,0-.21-.54.7.7,0,0,0-.52-.22.69.69,0,0,0-.52.22.75.75,0,0,0-.21.53.74.74,0,0,0,.21.53A.69.69,0,0,0,28.07,52.11Z"/><path class="cls-2" d="M29.83,52.32h-.29V49.63h.29Z"/><path class="cls-2" d="M33,51.27a1.81,1.81,0,0,1-.08.61.76.76,0,0,1-.29.36.82.82,0,0,1-.48.14,1.06,1.06,0,0,1-.39-.07.78.78,0,0,1-.29-.2.78.78,0,0,1-.17-.28,2.12,2.12,0,0,1,0-.56V49.7h.31v1.58a3.55,3.55,0,0,0,0,.37.52.52,0,0,0,.08.22.47.47,0,0,0,.2.17.64.64,0,0,0,.29.06.52.52,0,0,0,.33-.11.5.5,0,0,0,.18-.26,1.79,1.79,0,0,0,0-.44V49.7H33Z"/><path class="cls-2" d="M34.56,50.59l-.19.2a.61.61,0,0,0-.39-.2.26.26,0,0,0-.19.07.23.23,0,0,0-.08.17.24.24,0,0,0,.08.18,1.52,1.52,0,0,0,.3.19,1.11,1.11,0,0,1,.33.25.5.5,0,0,1,.12.33.57.57,0,0,1-.17.42.59.59,0,0,1-.43.17.72.72,0,0,1-.59-.3l.19-.21a.53.53,0,0,0,.39.23.33.33,0,0,0,.23-.09.28.28,0,0,0,.1-.21.26.26,0,0,0-.09-.2,1.41,1.41,0,0,0-.3-.19,1,1,0,0,1-.32-.24.51.51,0,0,1-.11-.34.49.49,0,0,1,.16-.36.57.57,0,0,1,.41-.15A.81.81,0,0,1,34.56,50.59Z"/><path class="cls-2" d="M36.86,51.39H35.14a.75.75,0,0,0,.22.52.66.66,0,0,0,.47.2.78.78,0,0,0,.72-.46l.25.13a1.22,1.22,0,0,1-.4.46,1,1,0,0,1-.55.15,1,1,0,0,1-.73-.3,1.07,1.07,0,0,1,0-1.46.94.94,0,0,1,.71-.3,1,1,0,0,1,.71.29A1.11,1.11,0,0,1,36.86,51.39Zm-.33-.26a.63.63,0,0,0-.24-.39.72.72,0,0,0-.44-.14.66.66,0,0,0-.67.53Z"/><path class="cls-2" d="M39.5,52.32H38.2V49.7h.31V52h1Z"/><path class="cls-2" d="M39.93,49.63a.23.23,0,1,1,0,.46.21.21,0,0,1-.16-.07.23.23,0,0,1,0-.32A.21.21,0,0,1,39.93,49.63Zm.15,2.69h-.3v-2h.3Z"/><path class="cls-2" d="M42.44,51.92a1,1,0,0,1-.4.34,1.25,1.25,0,0,1-.54.12,1,1,0,0,1-.75-.3,1,1,0,0,1-.3-.73,1,1,0,0,1,.3-.74,1.06,1.06,0,0,1,.79-.31,1.12,1.12,0,0,1,.53.13.93.93,0,0,1,.38.35l-.23.15a.82.82,0,0,0-.68-.34.78.78,0,0,0-.56.21.7.7,0,0,0-.23.53.74.74,0,0,0,.22.54.76.76,0,0,0,.56.23.86.86,0,0,0,.69-.34Z"/><path class="cls-2" d="M44.78,51.39H43.06a.76.76,0,0,0,.22.52.66.66,0,0,0,.48.2.78.78,0,0,0,.72-.46l.25.13a1.22,1.22,0,0,1-.4.46,1,1,0,0,1-.55.15,1,1,0,0,1-.73-.3,1.07,1.07,0,0,1,0-1.46,1,1,0,0,1,.72-.3,1,1,0,0,1,.71.29A1.1,1.1,0,0,1,44.78,51.39Zm-.33-.26a.63.63,0,0,0-.24-.39.72.72,0,0,0-.44-.14.66.66,0,0,0-.67.53Z"/><path class="cls-2" d="M46.9,52.32H46.6v-.93a2.06,2.06,0,0,0,0-.44.57.57,0,0,0-.09-.2.36.36,0,0,0-.15-.12.59.59,0,0,0-.48,0,.65.65,0,0,0-.22.18.68.68,0,0,0-.12.24,2.42,2.42,0,0,0,0,.52v.72h-.3v-2h.3v.29a.88.88,0,0,1,.69-.34.7.7,0,0,1,.38.11.69.69,0,0,1,.26.3,1.52,1.52,0,0,1,.09.59Z"/><path class="cls-2" d="M48.39,50.59l-.19.2a.6.6,0,0,0-.39-.2.26.26,0,0,0-.19.07.22.22,0,0,0-.08.17.24.24,0,0,0,.08.18,1.54,1.54,0,0,0,.3.19,1.11,1.11,0,0,1,.33.25.49.49,0,0,1,.12.33.58.58,0,0,1-.17.42.59.59,0,0,1-.43.17.72.72,0,0,1-.59-.3l.19-.21a.53.53,0,0,0,.39.23A.33.33,0,0,0,48,52a.28.28,0,0,0,.1-.21.26.26,0,0,0-.09-.2,1.4,1.4,0,0,0-.3-.19,1,1,0,0,1-.32-.24.51.51,0,0,1-.11-.34.49.49,0,0,1,.16-.36.57.57,0,0,1,.41-.15A.82.82,0,0,1,48.39,50.59Z"/><path class="cls-2" d="M50.69,51.39H49a.76.76,0,0,0,.22.52.66.66,0,0,0,.48.2.78.78,0,0,0,.72-.46l.25.13a1.22,1.22,0,0,1-.4.46,1,1,0,0,1-.55.15,1,1,0,0,1-.73-.3,1.07,1.07,0,0,1,0-1.46,1,1,0,0,1,.72-.3,1,1,0,0,1,.71.29A1.1,1.1,0,0,1,50.69,51.39Zm-.33-.26a.63.63,0,0,0-.24-.39.72.72,0,0,0-.44-.14.66.66,0,0,0-.67.53Z"/></g><g class="cls-4"><path class="cls-2" d="M8.35,57.38h-1v-.27h1Z"/><path class="cls-2" d="M10.49,57.27a1.79,1.79,0,0,1-.08.61.76.76,0,0,1-.29.36.82.82,0,0,1-.48.14,1.06,1.06,0,0,1-.39-.07.78.78,0,0,1-.29-.2.75.75,0,0,1-.17-.28,2.12,2.12,0,0,1,0-.56V55.7H9v1.58a3.23,3.23,0,0,0,0,.37.53.53,0,0,0,.08.22.48.48,0,0,0,.2.17.64.64,0,0,0,.29.06A.52.52,0,0,0,10,58a.5.5,0,0,0,.18-.26,1.79,1.79,0,0,0,0-.44V55.7h.3Z"/><path class="cls-2" d="M12.75,58.32h-.29v-.93a2.06,2.06,0,0,0,0-.44.57.57,0,0,0-.09-.2.36.36,0,0,0-.15-.12.59.59,0,0,0-.48,0,.65.65,0,0,0-.22.18.68.68,0,0,0-.12.24,2.42,2.42,0,0,0,0,.52v.72H11v-2h.3v.29a.88.88,0,0,1,.69-.34.7.7,0,0,1,.38.11.69.69,0,0,1,.26.3,1.52,1.52,0,0,1,.09.59Z"/><path class="cls-2" d="M13.48,58.32h-.29V55.63h.29Z"/><path class="cls-2" d="M14.05,55.63a.23.23,0,0,1,.16.39.22.22,0,0,1-.16.07.21.21,0,0,1-.16-.07.23.23,0,0,1,0-.32A.22.22,0,0,1,14.05,55.63Zm.15,2.69h-.3v-2h.3Z"/><path class="cls-2" d="M17.56,58.32h-.3V57.25a1.62,1.62,0,0,0,0-.37.37.37,0,0,0-.13-.2.42.42,0,0,0-.27-.08.52.52,0,0,0-.31.11.55.55,0,0,0-.2.29,1.93,1.93,0,0,0-.06.55v.77H16v-1a2,2,0,0,0,0-.42.38.38,0,0,0-.13-.21.41.41,0,0,0-.26-.08.51.51,0,0,0-.3.1A.58.58,0,0,0,15,57a1.46,1.46,0,0,0-.07.53v.83h-.29v-2H15v.28a.76.76,0,0,1,.63-.33.66.66,0,0,1,.37.11.6.6,0,0,1,.24.31.87.87,0,0,1,.3-.31.76.76,0,0,1,.39-.11.65.65,0,0,1,.48.2,1.05,1.05,0,0,1,.2.74Z"/><path class="cls-2" d="M18.13,55.63a.23.23,0,1,1,0,.46A.21.21,0,0,1,18,56a.23.23,0,0,1,0-.32A.21.21,0,0,1,18.13,55.63Zm.15,2.69H18v-2h.3Z"/><path class="cls-2" d="M19.64,56.62h-.39V58s0,.08,0,.09l.11,0h.17v.25l-.26,0A.34.34,0,0,1,19,58.3.37.37,0,0,1,19,58V56.62h-.34v-.26H19v-.73h.3v.73h.39Z"/><path class="cls-2" d="M21.88,57.39H20.17a.75.75,0,0,0,.22.52.66.66,0,0,0,.47.2.78.78,0,0,0,.72-.46l.25.13a1.22,1.22,0,0,1-.4.46,1,1,0,0,1-.55.15,1,1,0,0,1-.73-.3,1.07,1.07,0,0,1,0-1.46.94.94,0,0,1,.71-.3,1,1,0,0,1,.71.29A1.11,1.11,0,0,1,21.88,57.39Zm-.33-.26a.63.63,0,0,0-.24-.39.72.72,0,0,0-.44-.14.66.66,0,0,0-.67.53Z"/><path class="cls-2" d="M24.24,58.32h-.29V58a1,1,0,0,1-.74.35,1,1,0,0,1-.71-.3,1,1,0,0,1-.29-.73,1,1,0,0,1,.3-.73,1,1,0,0,1,.73-.3.9.9,0,0,1,.72.35v-1h.29Zm-1-.21a.74.74,0,0,0,.73-.75.75.75,0,0,0-.21-.54.73.73,0,0,0-1,0,.76.76,0,0,0,0,1.06A.69.69,0,0,0,23.23,58.11Z"/><path class="cls-2" d="M26.78,56.88a.8.8,0,0,1,.38.27.67.67,0,0,1,.13.41.71.71,0,0,1-.24.55.89.89,0,0,1-.62.22h-.74V55.7h.53a1,1,0,0,1,.63.17.58.58,0,0,1,.22.49A.59.59,0,0,1,26.78,56.88ZM26,56.77h.12a.93.93,0,0,0,.48-.1.35.35,0,0,0,.16-.32q0-.36-.49-.36H26ZM26,58h.29a1.08,1.08,0,0,0,.4-.05.45.45,0,0,0,.2-.17.4.4,0,0,0,.08-.23.44.44,0,0,0,0-.2.45.45,0,0,0-.13-.16.59.59,0,0,0-.21-.1,2.09,2.09,0,0,0-.46,0H26Z"/><path class="cls-2" d="M29.65,58.32h-.29V58a1,1,0,0,1-.74.35,1,1,0,0,1-.71-.31,1,1,0,0,1-.3-.73,1,1,0,0,1,.3-.73,1,1,0,0,1,.73-.3.9.9,0,0,1,.72.35v-.3h.29Zm-1-.21a.7.7,0,0,0,.51-.21.73.73,0,0,0,.21-.54.74.74,0,0,0-.21-.54.7.7,0,0,0-.52-.22.69.69,0,0,0-.52.22.75.75,0,0,0-.21.53.74.74,0,0,0,.21.53A.69.69,0,0,0,28.64,58.11Z"/><path class="cls-2" d="M32.06,57.92a1,1,0,0,1-.4.34,1.25,1.25,0,0,1-.54.12,1,1,0,0,1-.75-.3,1,1,0,0,1-.3-.73,1,1,0,0,1,.3-.74,1.07,1.07,0,0,1,.79-.31,1.13,1.13,0,0,1,.53.13.93.93,0,0,1,.38.35l-.23.15a.82.82,0,0,0-.69-.34.79.79,0,0,0-.56.21.7.7,0,0,0-.23.53.75.75,0,0,0,.22.54.76.76,0,0,0,.56.23.86.86,0,0,0,.69-.34Z"/><path class="cls-2" d="M34,58.32h-.43l-.92-.83v.83h-.3V55.63h.3V57.1l.84-.74h.44l-1.08.93Z"/><path class="cls-2" d="M36,58.32h-.3V58a.87.87,0,0,1-.69.34.7.7,0,0,1-.38-.11.68.68,0,0,1-.26-.3,1.52,1.52,0,0,1-.09-.59v-1h.29v.93a2.06,2.06,0,0,0,0,.44.57.57,0,0,0,.09.2.36.36,0,0,0,.15.12.59.59,0,0,0,.48,0,.65.65,0,0,0,.22-.18.68.68,0,0,0,.12-.24,2.42,2.42,0,0,0,0-.52v-.72H36Z"/><path class="cls-2" d="M36.74,56.66a.9.9,0,0,1,.72-.35,1,1,0,0,1,.72.3,1,1,0,0,1,.3.73,1,1,0,0,1-.29.73,1,1,0,0,1-.71.3,1,1,0,0,1-.74-.35v1h-.29V56.37h.29Zm.72,1.45a.69.69,0,0,0,.51-.22.73.73,0,0,0,.22-.53.74.74,0,0,0-.21-.53.73.73,0,0,0-1,0,.74.74,0,0,0-.21.54.73.73,0,0,0,.21.54A.71.71,0,0,0,37.46,58.11Z"/></g><g class="cls-4"><path class="cls-2" d="M8.35,63.38h-1v-.27h1Z"/><path class="cls-2" d="M9.83,62.88a.8.8,0,0,1,.38.27.67.67,0,0,1,.13.41.71.71,0,0,1-.24.55.89.89,0,0,1-.62.22H8.74V61.7h.53a1,1,0,0,1,.63.17.58.58,0,0,1,.22.49A.59.59,0,0,1,9.83,62.88ZM9,62.77h.12a.93.93,0,0,0,.48-.1.35.35,0,0,0,.16-.32q0-.36-.49-.36H9ZM9,64h.29a1.08,1.08,0,0,0,.4-.05.45.45,0,0,0,.2-.17.4.4,0,0,0,.08-.23.44.44,0,0,0,0-.2.45.45,0,0,0-.13-.16.59.59,0,0,0-.21-.1,2.09,2.09,0,0,0-.46,0H9Z"/><path class="cls-2" d="M12.43,64.32h-.3V64a.88.88,0,0,1-.69.34.7.7,0,0,1-.38-.11.68.68,0,0,1-.26-.3,1.54,1.54,0,0,1-.09-.59v-1H11v.93a2,2,0,0,0,0,.44.56.56,0,0,0,.09.2.36.36,0,0,0,.15.12.59.59,0,0,0,.48,0,.65.65,0,0,0,.21-.18.7.7,0,0,0,.12-.24,2.49,2.49,0,0,0,0-.52v-.72h.3Z"/><path class="cls-2" d="M13.95,62.59l-.19.2a.6.6,0,0,0-.39-.2.26.26,0,0,0-.19.07.22.22,0,0,0-.08.17.24.24,0,0,0,.08.18,1.54,1.54,0,0,0,.3.19,1.11,1.11,0,0,1,.33.25.49.49,0,0,1,.12.33.58.58,0,0,1-.17.42.59.59,0,0,1-.43.17.72.72,0,0,1-.59-.3l.19-.21a.53.53,0,0,0,.39.23.33.33,0,0,0,.23-.09.28.28,0,0,0,.1-.21.26.26,0,0,0-.09-.2,1.4,1.4,0,0,0-.3-.19,1,1,0,0,1-.32-.24.51.51,0,0,1-.11-.34.49.49,0,0,1,.16-.36.57.57,0,0,1,.41-.15A.82.82,0,0,1,13.95,62.59Z"/><path class="cls-2" d="M14.43,61.63a.23.23,0,1,1,0,.46.21.21,0,0,1-.16-.07.23.23,0,0,1,0-.32A.21.21,0,0,1,14.43,61.63Zm.15,2.69h-.3v-2h.3Z"/><path class="cls-2" d="M16.75,64.32h-.29v-.93a2.06,2.06,0,0,0,0-.44.57.57,0,0,0-.09-.2.36.36,0,0,0-.15-.12.59.59,0,0,0-.48,0,.65.65,0,0,0-.22.18.68.68,0,0,0-.12.24,2.42,2.42,0,0,0,0,.52v.72H15v-2h.3v.29a.88.88,0,0,1,.69-.34.7.7,0,0,1,.38.11.69.69,0,0,1,.26.3,1.52,1.52,0,0,1,.09.59Z"/><path class="cls-2" d="M19.15,63.39H17.44a.75.75,0,0,0,.22.52.66.66,0,0,0,.47.2.78.78,0,0,0,.72-.46l.25.13a1.22,1.22,0,0,1-.4.46,1,1,0,0,1-.55.15,1,1,0,0,1-.73-.3,1.07,1.07,0,0,1,0-1.46.94.94,0,0,1,.71-.3,1,1,0,0,1,.71.29A1.11,1.11,0,0,1,19.15,63.39Zm-.33-.26a.63.63,0,0,0-.24-.39.72.72,0,0,0-.44-.14.66.66,0,0,0-.67.53Z"/><path class="cls-2" d="M20.57,62.59l-.19.2a.6.6,0,0,0-.39-.2.26.26,0,0,0-.19.07.22.22,0,0,0-.08.17.24.24,0,0,0,.08.18,1.54,1.54,0,0,0,.3.19,1.11,1.11,0,0,1,.33.25.49.49,0,0,1,.12.33.58.58,0,0,1-.17.42.59.59,0,0,1-.43.17.72.72,0,0,1-.59-.3l.19-.21a.53.53,0,0,0,.39.23.33.33,0,0,0,.23-.09.28.28,0,0,0,.1-.21.26.26,0,0,0-.09-.2,1.4,1.4,0,0,0-.3-.19,1,1,0,0,1-.32-.24.51.51,0,0,1-.11-.34.49.49,0,0,1,.16-.36.57.57,0,0,1,.41-.15A.82.82,0,0,1,20.57,62.59Z"/><path class="cls-2" d="M22,62.59l-.19.2a.61.61,0,0,0-.39-.2.26.26,0,0,0-.19.07.23.23,0,0,0-.08.17.24.24,0,0,0,.08.18,1.52,1.52,0,0,0,.3.19,1.11,1.11,0,0,1,.33.25.5.5,0,0,1,.12.33.57.57,0,0,1-.17.42.59.59,0,0,1-.43.17.72.72,0,0,1-.59-.3l.19-.21a.53.53,0,0,0,.39.23.33.33,0,0,0,.23-.09.28.28,0,0,0,.1-.21.26.26,0,0,0-.09-.2,1.41,1.41,0,0,0-.3-.19,1,1,0,0,1-.32-.24.51.51,0,0,1-.11-.34.49.49,0,0,1,.16-.36.57.57,0,0,1,.41-.15A.81.81,0,0,1,22,62.59Z"/><path class="cls-2" d="M25.74,63.84a1.52,1.52,0,0,1-2.18.15,1.42,1.42,0,0,1-.21-1.69,1.32,1.32,0,0,1,.51-.5,1.44,1.44,0,0,1,.7-.18,1.53,1.53,0,0,1,.68.14,1.32,1.32,0,0,1,.5.43l-.24.18a1.15,1.15,0,0,0-.92-.45,1.07,1.07,0,0,0-.77.32,1,1,0,0,0-.32.77,1,1,0,0,0,.32.76,1.17,1.17,0,0,0,1.7-.13Z"/><path class="cls-2" d="M28.1,64.32h-.29V64a1,1,0,0,1-.74.35,1,1,0,0,1-.71-.31,1,1,0,0,1-.3-.73,1,1,0,0,1,.3-.73,1,1,0,0,1,.73-.3.9.9,0,0,1,.72.35v-.3h.29Zm-1-.21a.7.7,0,0,0,.51-.21.73.73,0,0,0,.22-.54.74.74,0,0,0-.21-.54.69.69,0,0,0-.52-.22.68.68,0,0,0-.52.22.76.76,0,0,0,0,1.06A.69.69,0,0,0,27.09,64.11Z"/><path class="cls-2" d="M29.42,62.39l-.15.25a.25.25,0,0,0-.12,0,.26.26,0,0,0-.2.11.72.72,0,0,0-.13.29,3,3,0,0,0,0,.64v.67h-.3v-2h.3v.21a.77.77,0,0,1,.18-.2.35.35,0,0,1,.21-.06A.57.57,0,0,1,29.42,62.39Z"/><path class="cls-2" d="M31.63,64.32h-.29V64a1,1,0,0,1-.74.35,1,1,0,0,1-.71-.3,1,1,0,0,1-.29-.73,1,1,0,0,1,.3-.73,1,1,0,0,1,.73-.3.9.9,0,0,1,.72.35v-1h.29Zm-1-.21a.71.71,0,0,0,.51-.21.71.71,0,0,0,.22-.54.75.75,0,0,0-.21-.54.73.73,0,0,0-1,0,.76.76,0,0,0,0,1.06A.69.69,0,0,0,30.62,64.11Z"/><path class="cls-2" d="M33.07,61.7h.56a2.93,2.93,0,0,1,.83.08,1.16,1.16,0,0,1,.74.69,1.6,1.6,0,0,1,.1.59,1.38,1.38,0,0,1-.15.63,1.12,1.12,0,0,1-.42.46,1.56,1.56,0,0,1-.8.17h-.85Zm.3,2.33h.27a3.35,3.35,0,0,0,.66,0,.82.82,0,0,0,.36-.18.86.86,0,0,0,.23-.32,1.21,1.21,0,0,0,0-.91.88.88,0,0,0-.27-.35A1,1,0,0,0,34.2,62a3.94,3.94,0,0,0-.68,0h-.16Z"/><path class="cls-2" d="M37.62,63.39H35.91a.76.76,0,0,0,.22.52.66.66,0,0,0,.48.2.78.78,0,0,0,.72-.46l.25.13a1.22,1.22,0,0,1-.4.46,1,1,0,0,1-.55.15,1,1,0,0,1-.73-.3,1.07,1.07,0,0,1,0-1.46,1,1,0,0,1,.72-.3,1,1,0,0,1,.71.29A1.1,1.1,0,0,1,37.62,63.39Zm-.33-.26a.63.63,0,0,0-.24-.39.72.72,0,0,0-.44-.14.66.66,0,0,0-.67.53Z"/><path class="cls-2" d="M39,62.59l-.19.2a.61.61,0,0,0-.39-.2.26.26,0,0,0-.19.07.23.23,0,0,0-.08.17.24.24,0,0,0,.08.18,1.52,1.52,0,0,0,.3.19,1.11,1.11,0,0,1,.33.25.5.5,0,0,1,.12.33.57.57,0,0,1-.17.42.59.59,0,0,1-.43.17.72.72,0,0,1-.59-.3l.19-.21a.53.53,0,0,0,.39.23.33.33,0,0,0,.23-.09.28.28,0,0,0,.1-.21.26.26,0,0,0-.09-.2,1.41,1.41,0,0,0-.3-.19,1,1,0,0,1-.32-.24.51.51,0,0,1-.11-.34.49.49,0,0,1,.16-.36.57.57,0,0,1,.41-.15A.81.81,0,0,1,39,62.59Z"/><path class="cls-2" d="M39.53,61.63a.23.23,0,1,1,0,.46.21.21,0,0,1-.16-.07.23.23,0,0,1,0-.32A.21.21,0,0,1,39.53,61.63Zm.15,2.69h-.3v-2h.3Z"/><path class="cls-2" d="M42.09,63.86a1.84,1.84,0,0,1-.07.57.8.8,0,0,1-.2.32.88.88,0,0,1-.32.2,1.22,1.22,0,0,1-.41.07,1,1,0,0,1-1-.65h.32a.73.73,0,0,0,.69.37.89.89,0,0,0,.4-.09.52.52,0,0,0,.25-.23,1,1,0,0,0,.07-.44v0a.91.91,0,0,1-.34.24,1,1,0,0,1-.41.08,1,1,0,0,1-.71-.29,1,1,0,0,1,0-1.39,1,1,0,0,1,.71-.29,1,1,0,0,1,.72.34v-.29h.3Zm-.29-.55a.68.68,0,0,0-.21-.51.7.7,0,0,0-.5-.2.71.71,0,0,0-.53.22.7.7,0,0,0-.21.5.65.65,0,0,0,.2.49.79.79,0,0,0,1,0A.66.66,0,0,0,41.8,63.31Z"/><path class="cls-2" d="M44.26,64.32H44v-.93a2.13,2.13,0,0,0,0-.44.59.59,0,0,0-.09-.2.36.36,0,0,0-.15-.12.59.59,0,0,0-.48,0,.65.65,0,0,0-.21.18.7.7,0,0,0-.12.24,2.49,2.49,0,0,0,0,.52v.72h-.3v-2h.3v.29a.88.88,0,0,1,.69-.34.7.7,0,0,1,.38.11.68.68,0,0,1,.26.3,1.54,1.54,0,0,1,.09.59Z"/><path class="cls-2" d="M46.88,62h-.57v2.32H46V62h-.58v-.3h1.46Z"/><path class="cls-2" d="M48.09,62.32a1,1,0,0,1,.72.3,1.05,1.05,0,0,1,0,1.46,1,1,0,0,1-1.45,0,1.05,1.05,0,0,1,0-1.46A1,1,0,0,1,48.09,62.32Zm0,1.79a.68.68,0,0,0,.51-.22.73.73,0,0,0,.21-.52.74.74,0,0,0-.21-.53.68.68,0,0,0-1,0,.75.75,0,0,0-.21.53.73.73,0,0,0,.2.52A.68.68,0,0,0,48.09,64.1Z"/><path class="cls-2" d="M50.44,62.32a1,1,0,0,1,.72.3,1.05,1.05,0,0,1,0,1.46,1,1,0,0,1-1.45,0,1.05,1.05,0,0,1,0-1.46A1,1,0,0,1,50.44,62.32Zm0,1.79a.68.68,0,0,0,.51-.22.73.73,0,0,0,.21-.52.74.74,0,0,0-.21-.53.68.68,0,0,0-1,0,.75.75,0,0,0-.21.53.73.73,0,0,0,.2.52A.68.68,0,0,0,50.44,64.1Z"/><path class="cls-2" d="M52.12,64.32h-.29V61.63h.29Z"/></g><g class="cls-4"><path class="cls-2" d="M8.35,69.38h-1v-.27h1Z"/><path class="cls-2" d="M9.83,68.88a.8.8,0,0,1,.38.27.67.67,0,0,1,.13.41.71.71,0,0,1-.24.55.89.89,0,0,1-.62.22H8.74V67.7h.53a1,1,0,0,1,.63.17.58.58,0,0,1,.22.49A.59.59,0,0,1,9.83,68.88ZM9,68.77h.12a.93.93,0,0,0,.48-.1.35.35,0,0,0,.16-.32q0-.36-.49-.36H9ZM9,70h.29a1.08,1.08,0,0,0,.4-.05.45.45,0,0,0,.2-.17.4.4,0,0,0,.08-.23.44.44,0,0,0,0-.2.45.45,0,0,0-.13-.16.59.59,0,0,0-.21-.1,2.09,2.09,0,0,0-.46,0H9Z"/><path class="cls-2" d="M11.57,68.39l-.15.25a.25.25,0,0,0-.12,0,.26.26,0,0,0-.2.11A.72.72,0,0,0,11,69a3,3,0,0,0,0,.64v.67h-.3v-2h.3v.21a.77.77,0,0,1,.18-.2.35.35,0,0,1,.21-.06A.57.57,0,0,1,11.57,68.39Z"/><path class="cls-2" d="M13.77,70.32h-.29V70a1,1,0,0,1-.74.35,1,1,0,0,1-.71-.31,1,1,0,0,1-.3-.73,1,1,0,0,1,.3-.73,1,1,0,0,1,.73-.3.9.9,0,0,1,.72.35v-.3h.29Zm-1-.21a.7.7,0,0,0,.51-.21.73.73,0,0,0,.21-.54.74.74,0,0,0-.21-.54.7.7,0,0,0-.52-.22.69.69,0,0,0-.52.22.75.75,0,0,0-.21.53.74.74,0,0,0,.21.53A.69.69,0,0,0,12.77,70.11Z"/><path class="cls-2" d="M16,70.32H15.7v-.93a2.06,2.06,0,0,0,0-.44.57.57,0,0,0-.09-.2.36.36,0,0,0-.15-.12.59.59,0,0,0-.48,0,.65.65,0,0,0-.22.18.68.68,0,0,0-.12.24,2.42,2.42,0,0,0,0,.52v.72h-.3v-2h.3v.29a.88.88,0,0,1,.69-.34.7.7,0,0,1,.38.11.69.69,0,0,1,.26.3,1.52,1.52,0,0,1,.09.59Z"/><path class="cls-2" d="M18.41,70.32h-.29V70a1,1,0,0,1-.74.35,1,1,0,0,1-.71-.3,1,1,0,0,1-.29-.73,1,1,0,0,1,.3-.73,1,1,0,0,1,.73-.3.9.9,0,0,1,.72.35v-1h.29Zm-1-.21a.71.71,0,0,0,.51-.21.71.71,0,0,0,.22-.54.75.75,0,0,0-.21-.54.73.73,0,0,0-1,0,.76.76,0,0,0,0,1.06A.69.69,0,0,0,17.41,70.11Z"/><path class="cls-2" d="M20.85,69.39H19.13a.75.75,0,0,0,.22.52.66.66,0,0,0,.47.2.78.78,0,0,0,.72-.46l.25.13a1.22,1.22,0,0,1-.4.46,1,1,0,0,1-.55.15,1,1,0,0,1-.73-.3,1.07,1.07,0,0,1,0-1.46.94.94,0,0,1,.71-.3,1,1,0,0,1,.71.29A1.11,1.11,0,0,1,20.85,69.39Zm-.33-.26a.63.63,0,0,0-.24-.39.72.72,0,0,0-.44-.14.66.66,0,0,0-.67.53Z"/><path class="cls-2" d="M23.2,70.32h-.29V70a1,1,0,0,1-.74.35,1,1,0,0,1-.71-.3,1,1,0,0,1-.29-.73,1,1,0,0,1,.3-.73,1,1,0,0,1,.73-.3.9.9,0,0,1,.72.35v-1h.29Zm-1-.21a.74.74,0,0,0,.73-.75.75.75,0,0,0-.21-.54.73.73,0,0,0-1,0,.76.76,0,0,0,0,1.06A.69.69,0,0,0,22.2,70.11Z"/><path class="cls-2" d="M27.67,67.7l-.75,2.69h-.09l-.75-2-.76,2h-.09l-.74-2.69h.32l.51,1.86L26,67.7h.09l.71,1.86.52-1.86Z"/><path class="cls-2" d="M30,70.32H29.7V70a1,1,0,0,1-.74.35,1,1,0,0,1-.71-.31,1,1,0,0,1-.3-.73,1,1,0,0,1,.3-.73,1,1,0,0,1,.73-.3.9.9,0,0,1,.72.35v-.3H30Zm-1-.21a.7.7,0,0,0,.51-.21.73.73,0,0,0,.21-.54.74.74,0,0,0-.21-.54A.7.7,0,0,0,29,68.6a.69.69,0,0,0-.52.22.75.75,0,0,0-.21.53.74.74,0,0,0,.21.53A.69.69,0,0,0,29,70.11Z"/><path class="cls-2" d="M31.4,68.62H31V70s0,.08,0,.09l.11,0h.17v.25l-.26,0a.34.34,0,0,1-.25-.08.37.37,0,0,1-.08-.27V68.62h-.34v-.26h.34v-.73H31v.73h.39Z"/><path class="cls-2" d="M33.64,69.39H31.92a.75.75,0,0,0,.22.52.66.66,0,0,0,.47.2.78.78,0,0,0,.72-.46l.25.13a1.22,1.22,0,0,1-.4.46,1,1,0,0,1-.55.15,1,1,0,0,1-.73-.3,1.07,1.07,0,0,1,0-1.46.94.94,0,0,1,.71-.3,1,1,0,0,1,.71.29A1.11,1.11,0,0,1,33.64,69.39Zm-.33-.26a.63.63,0,0,0-.24-.39.72.72,0,0,0-.44-.14.66.66,0,0,0-.67.53Z"/><path class="cls-2" d="M34.87,68.39l-.15.25a.25.25,0,0,0-.12,0,.26.26,0,0,0-.2.11.72.72,0,0,0-.13.29,3,3,0,0,0,0,.64v.67h-.3v-2h.3v.21a.77.77,0,0,1,.18-.2.35.35,0,0,1,.21-.06A.57.57,0,0,1,34.87,68.39Z"/><path class="cls-2" d="M38,70.32h-.3V69.25a1.63,1.63,0,0,0,0-.37.37.37,0,0,0-.13-.2.42.42,0,0,0-.27-.08.53.53,0,0,0-.31.11.55.55,0,0,0-.2.29,2,2,0,0,0-.06.55v.77h-.29v-1a2.12,2.12,0,0,0,0-.42.38.38,0,0,0-.13-.21A.41.41,0,0,0,36,68.6a.51.51,0,0,0-.3.1.6.6,0,0,0-.21.26,1.49,1.49,0,0,0-.07.53v.83h-.29v-2h.29v.28a.76.76,0,0,1,.63-.33.66.66,0,0,1,.37.11.6.6,0,0,1,.24.31.87.87,0,0,1,.3-.31.76.76,0,0,1,.39-.11.65.65,0,0,1,.48.2,1.06,1.06,0,0,1,.2.74Z"/><path class="cls-2" d="M40.43,70.32h-.29V70a1,1,0,0,1-.74.35,1,1,0,0,1-.71-.31,1,1,0,0,1-.3-.73,1,1,0,0,1,.3-.73,1,1,0,0,1,.73-.3.9.9,0,0,1,.72.35v-.3h.29Zm-1-.21a.7.7,0,0,0,.51-.21.73.73,0,0,0,.21-.54.74.74,0,0,0-.21-.54.7.7,0,0,0-.52-.22.69.69,0,0,0-.52.22.75.75,0,0,0-.21.53.74.74,0,0,0,.21.53A.69.69,0,0,0,39.43,70.11Z"/><path class="cls-2" d="M41.76,68.39l-.15.25a.25.25,0,0,0-.12,0,.26.26,0,0,0-.2.11.73.73,0,0,0-.13.29,3.07,3.07,0,0,0,0,.64v.67h-.3v-2h.3v.21a.77.77,0,0,1,.18-.2.35.35,0,0,1,.21-.06A.57.57,0,0,1,41.76,68.39Z"/><path class="cls-2" d="M43.55,70.32h-.43l-.92-.83v.83h-.3V67.63h.3V69.1l.84-.74h.44l-1.08.93Z"/><path class="cls-2" d="M46,68h-.57v2.32h-.31V68h-.58v-.3H46Z"/><path class="cls-2" d="M47.17,68.32a1,1,0,0,1,.72.3,1.05,1.05,0,0,1,0,1.46,1,1,0,0,1-1.45,0,1.05,1.05,0,0,1,0-1.46A1,1,0,0,1,47.17,68.32Zm0,1.79a.68.68,0,0,0,.51-.22.73.73,0,0,0,.21-.52.75.75,0,0,0-.21-.53.68.68,0,0,0-.51-.22.67.67,0,0,0-.5.22.75.75,0,0,0-.21.53.73.73,0,0,0,.21.52A.68.68,0,0,0,47.17,70.1Z"/><path class="cls-2" d="M49.51,68.32a1,1,0,0,1,.72.3,1.05,1.05,0,0,1,0,1.46,1,1,0,0,1-1.45,0,1.05,1.05,0,0,1,0-1.46A1,1,0,0,1,49.51,68.32Zm0,1.79a.68.68,0,0,0,.51-.22.73.73,0,0,0,.21-.52.74.74,0,0,0-.21-.53.68.68,0,0,0-1,0,.75.75,0,0,0-.21.53.73.73,0,0,0,.2.52A.68.68,0,0,0,49.51,70.1Z"/><path class="cls-2" d="M51.19,70.32H50.9V67.63h.29Z"/></g><g class="cls-4"><path class="cls-2" d="M8.35,75.38h-1v-.27h1Z"/><path class="cls-2" d="M9.83,74.88a.8.8,0,0,1,.38.27.67.67,0,0,1,.13.41.71.71,0,0,1-.24.55.89.89,0,0,1-.62.22H8.74V73.7h.53a1,1,0,0,1,.63.17.58.58,0,0,1,.22.49A.59.59,0,0,1,9.83,74.88ZM9,74.77h.12a.93.93,0,0,0,.48-.1.35.35,0,0,0,.16-.32q0-.36-.49-.36H9ZM9,76h.29a1.08,1.08,0,0,0,.4-.05.45.45,0,0,0,.2-.17.4.4,0,0,0,.08-.23.44.44,0,0,0,0-.2.45.45,0,0,0-.13-.16.59.59,0,0,0-.21-.1,2.09,2.09,0,0,0-.46,0H9Z"/><path class="cls-2" d="M11.57,74.39l-.15.25a.25.25,0,0,0-.12,0,.26.26,0,0,0-.2.11A.72.72,0,0,0,11,75a3,3,0,0,0,0,.64v.67h-.3v-2h.3v.21a.77.77,0,0,1,.18-.2.35.35,0,0,1,.21-.06A.57.57,0,0,1,11.57,74.39Z"/><path class="cls-2" d="M13.77,76.32h-.29V76a1,1,0,0,1-.74.35,1,1,0,0,1-.71-.31,1,1,0,0,1-.3-.73,1,1,0,0,1,.3-.73,1,1,0,0,1,.73-.3.9.9,0,0,1,.72.35v-.3h.29Zm-1-.21a.7.7,0,0,0,.51-.21.73.73,0,0,0,.21-.54.74.74,0,0,0-.21-.54.7.7,0,0,0-.52-.22.69.69,0,0,0-.52.22.75.75,0,0,0-.21.53.74.74,0,0,0,.21.53A.69.69,0,0,0,12.77,76.11Z"/><path class="cls-2" d="M16,76.32H15.7v-.93a2.06,2.06,0,0,0,0-.44.57.57,0,0,0-.09-.2.36.36,0,0,0-.15-.12.59.59,0,0,0-.48,0,.65.65,0,0,0-.22.18.68.68,0,0,0-.12.24,2.42,2.42,0,0,0,0,.52v.72h-.3v-2h.3v.29a.88.88,0,0,1,.69-.34.7.7,0,0,1,.38.11.69.69,0,0,1,.26.3,1.52,1.52,0,0,1,.09.59Z"/><path class="cls-2" d="M18.41,76.32h-.29V76a1,1,0,0,1-.74.35,1,1,0,0,1-.71-.3,1,1,0,0,1-.29-.73,1,1,0,0,1,.3-.73,1,1,0,0,1,.73-.3.9.9,0,0,1,.72.35v-1h.29Zm-1-.21a.71.71,0,0,0,.51-.21.71.71,0,0,0,.22-.54.75.75,0,0,0-.21-.54.73.73,0,0,0-1,0,.76.76,0,0,0,0,1.06A.69.69,0,0,0,17.41,76.11Z"/><path class="cls-2" d="M20.85,75.39H19.13a.75.75,0,0,0,.22.52.66.66,0,0,0,.47.2.78.78,0,0,0,.72-.46l.25.13a1.22,1.22,0,0,1-.4.46,1,1,0,0,1-.55.15,1,1,0,0,1-.73-.3,1.07,1.07,0,0,1,0-1.46.94.94,0,0,1,.71-.3,1,1,0,0,1,.71.29A1.11,1.11,0,0,1,20.85,75.39Zm-.33-.26a.63.63,0,0,0-.24-.39.72.72,0,0,0-.44-.14.66.66,0,0,0-.67.53Z"/><path class="cls-2" d="M23.2,76.32h-.29V76a1,1,0,0,1-.74.35,1,1,0,0,1-.71-.3,1,1,0,0,1-.29-.73,1,1,0,0,1,.3-.73,1,1,0,0,1,.73-.3.9.9,0,0,1,.72.35v-1h.29Zm-1-.21a.74.74,0,0,0,.73-.75.75.75,0,0,0-.21-.54.73.73,0,0,0-1,0,.76.76,0,0,0,0,1.06A.69.69,0,0,0,22.2,76.11Z"/><path class="cls-2" d="M24.64,73.7h.54a3.07,3.07,0,0,1,.6,0,.69.69,0,0,1,.26.13.65.65,0,0,1,.19.23.72.72,0,0,1,.07.32.74.74,0,0,1-.07.32A.62.62,0,0,1,26,75a.78.78,0,0,1-.3.13,3.67,3.67,0,0,1-.63,0H25v1.2h-.31ZM25,74.82h.41a.72.72,0,0,0,.49-.11.4.4,0,0,0,.13-.3q0-.41-.6-.41H25Z"/><path class="cls-2" d="M27.55,74.39l-.15.25a.25.25,0,0,0-.12,0,.26.26,0,0,0-.2.11.73.73,0,0,0-.13.29,3.07,3.07,0,0,0,0,.64v.67h-.3v-2h.3v.21a.77.77,0,0,1,.18-.2.35.35,0,0,1,.21-.06A.57.57,0,0,1,27.55,74.39Z"/><path class="cls-2" d="M29.73,75.39H28a.75.75,0,0,0,.22.52.66.66,0,0,0,.47.2.78.78,0,0,0,.72-.46l.25.13a1.22,1.22,0,0,1-.4.46,1,1,0,0,1-.55.15,1,1,0,0,1-.73-.3,1.07,1.07,0,0,1,0-1.46.94.94,0,0,1,.71-.3,1,1,0,0,1,.71.29A1.11,1.11,0,0,1,29.73,75.39Zm-.33-.26a.63.63,0,0,0-.24-.39.72.72,0,0,0-.44-.14.66.66,0,0,0-.67.53Z"/><path class="cls-2" d="M31.16,74.59l-.19.2a.6.6,0,0,0-.39-.2.26.26,0,0,0-.19.07.22.22,0,0,0-.08.17.24.24,0,0,0,.08.18,1.54,1.54,0,0,0,.3.19,1.11,1.11,0,0,1,.33.25.49.49,0,0,1,.12.33.58.58,0,0,1-.17.42.59.59,0,0,1-.43.17.72.72,0,0,1-.59-.3l.19-.21a.53.53,0,0,0,.39.23.33.33,0,0,0,.23-.09.28.28,0,0,0,.1-.21.26.26,0,0,0-.09-.2,1.4,1.4,0,0,0-.3-.19,1,1,0,0,1-.32-.24.51.51,0,0,1-.11-.34.49.49,0,0,1,.16-.36.57.57,0,0,1,.41-.15A.82.82,0,0,1,31.16,74.59Z"/><path class="cls-2" d="M33.45,75.39H31.74a.76.76,0,0,0,.22.52.66.66,0,0,0,.48.2.78.78,0,0,0,.72-.46l.25.13a1.22,1.22,0,0,1-.4.46,1,1,0,0,1-.55.15,1,1,0,0,1-.73-.3,1.07,1.07,0,0,1,0-1.46,1,1,0,0,1,.72-.3,1,1,0,0,1,.71.29A1.1,1.1,0,0,1,33.45,75.39Zm-.33-.26a.63.63,0,0,0-.24-.39.72.72,0,0,0-.44-.14.66.66,0,0,0-.67.53Z"/><path class="cls-2" d="M35.57,76.32h-.29v-.93a2.06,2.06,0,0,0,0-.44.57.57,0,0,0-.09-.2.36.36,0,0,0-.15-.12.59.59,0,0,0-.48,0,.65.65,0,0,0-.22.18.68.68,0,0,0-.12.24,2.42,2.42,0,0,0,0,.52v.72h-.3v-2h.3v.29a.88.88,0,0,1,.69-.34.7.7,0,0,1,.38.11.69.69,0,0,1,.26.3,1.52,1.52,0,0,1,.09.59Z"/><path class="cls-2" d="M36.95,74.62h-.39V76s0,.08,0,.09l.11,0h.17v.25l-.26,0a.34.34,0,0,1-.25-.08.37.37,0,0,1-.08-.27V74.62h-.34v-.26h.34v-.73h.3v.73h.39Z"/><path class="cls-2" d="M39.21,76.32h-.29V76a1,1,0,0,1-.74.35,1,1,0,0,1-.71-.31,1,1,0,0,1-.3-.73,1,1,0,0,1,.3-.73,1,1,0,0,1,.73-.3.9.9,0,0,1,.72.35v-.3h.29Zm-1-.21a.7.7,0,0,0,.51-.21.73.73,0,0,0,.21-.54.74.74,0,0,0-.21-.54.7.7,0,0,0-.52-.22.69.69,0,0,0-.52.22.75.75,0,0,0-.21.53.74.74,0,0,0,.21.53A.69.69,0,0,0,38.2,76.11Z"/><path class="cls-2" d="M40.61,74.62h-.39V76s0,.08,0,.09l.11,0h.17v.25l-.26,0A.34.34,0,0,1,40,76.3a.37.37,0,0,1-.08-.27V74.62h-.34v-.26h.34v-.73h.3v.73h.39Z"/><path class="cls-2" d="M41,73.63a.23.23,0,0,1,.16.39.22.22,0,0,1-.16.07.21.21,0,0,1-.16-.07.23.23,0,0,1,0-.32A.22.22,0,0,1,41,73.63Zm.15,2.69h-.3v-2h.3Z"/><path class="cls-2" d="M42.57,74.32a1,1,0,0,1,.72.3,1.05,1.05,0,0,1,0,1.46,1,1,0,0,1-1.45,0,1.05,1.05,0,0,1,0-1.46A1,1,0,0,1,42.57,74.32Zm0,1.79a.68.68,0,0,0,.51-.22.73.73,0,0,0,.21-.52.74.74,0,0,0-.21-.53.68.68,0,0,0-1,0,.75.75,0,0,0-.21.53.73.73,0,0,0,.2.52A.68.68,0,0,0,42.57,76.1Z"/><path class="cls-2" d="M45.71,76.32h-.29v-.93a2.06,2.06,0,0,0,0-.44.57.57,0,0,0-.09-.2.36.36,0,0,0-.15-.12.59.59,0,0,0-.48,0,.65.65,0,0,0-.22.18.68.68,0,0,0-.12.24,2.42,2.42,0,0,0,0,.52v.72H44v-2h.3v.29a.88.88,0,0,1,.69-.34.7.7,0,0,1,.38.11.69.69,0,0,1,.26.3,1.52,1.52,0,0,1,.09.59Z"/></g><g class="cls-4"><path class="cls-3" d="M24.87,85.21a1.32,1.32,0,0,1-1.9.13,1.24,1.24,0,0,1-.19-1.47,1.14,1.14,0,0,1,.45-.43,1.26,1.26,0,0,1,.62-.16,1.34,1.34,0,0,1,.59.13,1.15,1.15,0,0,1,.44.37l-.21.16a1,1,0,0,0-.8-.39.93.93,0,0,0-.67.28.9.9,0,0,0-.28.67.89.89,0,0,0,.28.67,1,1,0,0,0,1.48-.11Z"/><path class="cls-3" d="M25.45,85.63H25.2V83.28h.26Z"/><path class="cls-3" d="M25.95,83.28a.19.19,0,0,1,.14.06.19.19,0,0,1,.06.14.2.2,0,0,1-.2.2.19.19,0,0,1-.14-.06.19.19,0,0,1-.06-.14.19.19,0,0,1,.06-.14A.19.19,0,0,1,25.95,83.28Zm.13,2.35h-.26v-1.7h.26Z"/><path class="cls-3" d="M28.14,85.28a.87.87,0,0,1-.35.3,1.09,1.09,0,0,1-.47.1.9.9,0,0,1-.66-.26.86.86,0,0,1-.26-.63.88.88,0,0,1,.27-.64.92.92,0,0,1,.69-.27,1,1,0,0,1,.46.11.81.81,0,0,1,.33.31l-.2.13a.72.72,0,0,0-.6-.3.68.68,0,0,0-.49.19.61.61,0,0,0-.2.46.65.65,0,0,0,.19.47.66.66,0,0,0,.49.2.74.74,0,0,0,.6-.3Z"/><path class="cls-3" d="M29.84,85.63h-.37l-.8-.72v.72h-.26V83.28h.26v1.29l.73-.64h.38l-.94.81Z"/><path class="cls-3" d="M33.36,85.63H33.1l-.21-1.56-.77,1.56H32l-.78-1.57L31,85.63h-.26l.33-2.29h.07l.9,1.82L33,83.34H33Z"/><path class="cls-3" d="M35.41,84.82H33.91a.66.66,0,0,0,.19.45.57.57,0,0,0,.42.17.68.68,0,0,0,.63-.4l.22.11a1.07,1.07,0,0,1-.35.4.87.87,0,0,1-.48.13.84.84,0,0,1-.63-.26.94.94,0,0,1,0-1.27.83.83,0,0,1,.62-.27.84.84,0,0,1,.62.25A1,1,0,0,1,35.41,84.82Zm-.29-.23a.55.55,0,0,0-.21-.34.63.63,0,0,0-.38-.12.57.57,0,0,0-.58.46Z"/><path class="cls-3" d="M36,85.09a.21.21,0,0,1,.15.06.21.21,0,0,1,0,.3.21.21,0,0,1-.36-.15.2.2,0,0,1,.06-.15A.2.2,0,0,1,36,85.09Zm.13-.25h-.27V83.13h.27Z"/></g></g></g></svg>