<svg xmlns="http://www.w3.org/2000/svg" viewBox="0 0 58.5 88.3"><defs><style>.cls-1{fill:#2980b9;}.cls-2{fill:#3498db;}.cls-3{fill:#ecf0f1;}.cls-4{isolation:isolate;}.cls-5{fill:#2c3e50;}</style></defs><title>Asset 2</title><g id="Layer_2" data-name="Layer 2"><g id="Слой_1" data-name="Слой 1"><path class="cls-1" d="M58.5,4a4,4,0,0,0-4-4H4A4,4,0,0,0,0,4V7.9H58.5Z"/><rect class="cls-2" y="7.9" width="58.5" height="30.2"/><rect class="cls-3" y="38.1" width="58.5" height="42.3"/><path class="cls-1" d="M0,84.3a4.1,4.1,0,0,0,.7,2.2A3.86,3.86,0,0,0,4,88.3H54.5a3.86,3.86,0,0,0,3.3-1.8,4.1,4.1,0,0,0,.7-2.2V80.4H0Z"/><polygon class="cls-2" points="31 38.1 29.3 39.7 27.6 38.1 31 38.1"/><polygon class="cls-3" points="31 80.2 29.3 81.9 27.6 80.2 31 80.2"/><g class="cls-4"><path class="cls-3" d="M13.54,25.58h-.79v-.84A2.65,2.65,0,0,1,10.81,24a2.14,2.14,0,0,1-.52-1.39v-.06h1v.06a1.21,1.21,0,0,0,.26.8,1.82,1.82,0,0,0,1.14.44V20.93l-.31-.14a3.47,3.47,0,0,1-1.48-1,2.09,2.09,0,0,1-.38-1.25,2.39,2.39,0,0,1,.23-1.07,2,2,0,0,1,.68-.79,2.78,2.78,0,0,1,1.25-.41V15.4h.79v.88a2.14,2.14,0,0,1,1.54.58,1.62,1.62,0,0,1,.4,1v0h-1v0a.62.62,0,0,0-.23-.49,1.48,1.48,0,0,0-.68-.28v3l.44.16a5.29,5.29,0,0,1,.94.53,1.65,1.65,0,0,1,.59.7,2.09,2.09,0,0,1,.17.83,2.52,2.52,0,0,1-.23,1.06,2.42,2.42,0,0,1-.67.87,2.49,2.49,0,0,1-1.23.48Zm-.79-5.78V17.11a1.36,1.36,0,0,0-.9.51,1.51,1.51,0,0,0-.28.89,1.07,1.07,0,0,0,.2.67,2.14,2.14,0,0,0,.78.55Zm.79,1.43v2.6a1.3,1.3,0,0,0,.69-.25,1.17,1.17,0,0,0,.33-.48,1.75,1.75,0,0,0,.11-.61,1.15,1.15,0,0,0-.2-.68,1.55,1.55,0,0,0-.68-.49Z"/><path class="cls-3" d="M22.55,24.72H16.42L19.84,21a12.78,12.78,0,0,0,1.22-1.44,2.08,2.08,0,0,0,.36-1.2,1.59,1.59,0,0,0-.52-1.18,1.79,1.79,0,0,0-1.3-.5,1.7,1.7,0,0,0-1.29.55,2.44,2.44,0,0,0-.59,1.55h-1a3.23,3.23,0,0,1,.9-2.25,2.78,2.78,0,0,1,2-.83,2.71,2.71,0,0,1,2,.77,2.56,2.56,0,0,1,.79,1.89A2.87,2.87,0,0,1,22,19.91a10.61,10.61,0,0,1-1.31,1.64l-2,2.17h3.88Z"/><path class="cls-3" d="M24.71,22.67A.81.81,0,1,1,24.15,24a.79.79,0,0,1-.24-.58.77.77,0,0,1,.24-.57A.78.78,0,0,1,24.71,22.67Z"/><path class="cls-3" d="M29.94,21a3,3,0,0,1-.7.08,2.38,2.38,0,0,1-1.79-.76,2.66,2.66,0,0,1-.73-1.91,2.59,2.59,0,0,1,.8-1.93,2.72,2.72,0,0,1,2-.78,2.57,2.57,0,0,1,1.93.8,2.66,2.66,0,0,1,.77,1.91,3.23,3.23,0,0,1-.25,1.23A7.64,7.64,0,0,1,31.21,21l-2.65,4-.86-.55Zm-.48-.84a1.66,1.66,0,0,0,1.22-.51,1.72,1.72,0,0,0,0-2.44,1.73,1.73,0,1,0-1.22,2.95Z"/><path class="cls-3" d="M36.59,21a3,3,0,0,1-.7.08,2.38,2.38,0,0,1-1.79-.76,2.67,2.67,0,0,1-.73-1.91,2.58,2.58,0,0,1,.8-1.93,2.72,2.72,0,0,1,2-.78,2.57,2.57,0,0,1,1.93.8,2.66,2.66,0,0,1,.77,1.91,3.23,3.23,0,0,1-.25,1.23A7.7,7.7,0,0,1,37.86,21l-2.65,4-.86-.55Zm-.48-.84a1.72,1.72,0,1,0-1.22-.5A1.66,1.66,0,0,0,36.11,20.19Z"/></g><g class="cls-4"><path class="cls-3" d="M40.7,22l-1.21,3.4h-.36L40.34,22Z"/><path class="cls-3" d="M44.29,25.2H44V24a1.86,1.86,0,0,0,0-.42.42.42,0,0,0-.15-.22.48.48,0,0,0-.3-.09.59.59,0,0,0-.35.12.62.62,0,0,0-.23.33,2.19,2.19,0,0,0-.06.61v.86h-.33V24.08a2.33,2.33,0,0,0,0-.47.42.42,0,0,0-.15-.24.45.45,0,0,0-.29-.09.57.57,0,0,0-.33.11.66.66,0,0,0-.24.29,1.64,1.64,0,0,0-.08.59v.93h-.33V23h.33v.31a.85.85,0,0,1,.7-.37.74.74,0,0,1,.42.12.67.67,0,0,1,.27.35,1,1,0,0,1,.34-.35.84.84,0,0,1,.43-.12.73.73,0,0,1,.53.22,1.18,1.18,0,0,1,.22.83Z"/><path class="cls-3" d="M45.86,23a1.08,1.08,0,0,1,.8.34,1.18,1.18,0,0,1,0,1.63,1.14,1.14,0,0,1-1.62,0,1.18,1.18,0,0,1,0-1.63A1.09,1.09,0,0,1,45.86,23Zm0,2a.76.76,0,0,0,.57-.24.81.81,0,0,0,.23-.59.83.83,0,0,0-.24-.59.76.76,0,0,0-1.13,0,.84.84,0,0,0-.24.59.82.82,0,0,0,.23.59A.76.76,0,0,0,45.86,25Z"/><path class="cls-3" d="M47.77,24.51a.27.27,0,0,1,.27.27A.26.26,0,0,1,48,25a.26.26,0,0,1-.19.08.27.27,0,0,1-.27-.27.25.25,0,0,1,.08-.19A.26.26,0,0,1,47.77,24.51Z"/></g><g class="cls-4"><path class="cls-5" d="M20.56,34.94H19V31.76h.38v2.81h1.2Z"/><path class="cls-5" d="M22.07,32.51a1.17,1.17,0,0,1,.87.37,1.27,1.27,0,0,1,0,1.77,1.22,1.22,0,0,1-1.75,0,1.27,1.27,0,0,1,0-1.77A1.17,1.17,0,0,1,22.07,32.51Zm0,2.16a.83.83,0,0,0,.61-.26.88.88,0,0,0,.25-.63.9.9,0,0,0-.26-.64.82.82,0,0,0-1.22,0,.91.91,0,0,0-.26.64.88.88,0,0,0,.25.63A.82.82,0,0,0,22.07,34.67Z"/><path class="cls-5" d="M26.15,34.38a2.22,2.22,0,0,1-.08.69,1,1,0,0,1-.24.38,1.05,1.05,0,0,1-.39.24,1.5,1.5,0,0,1-.5.08A1.2,1.2,0,0,1,23.7,35h.38a.88.88,0,0,0,.84.45,1.08,1.08,0,0,0,.48-.1.63.63,0,0,0,.3-.28,1.25,1.25,0,0,0,.09-.53v0a1.12,1.12,0,0,1-.41.29,1.27,1.27,0,0,1-.49.1,1.15,1.15,0,0,1-.86-.35,1.18,1.18,0,0,1,0-1.68,1.2,1.2,0,0,1,.87-.35,1.15,1.15,0,0,1,.87.41v-.35h.36Zm-.35-.66a.82.82,0,0,0-.25-.62.84.84,0,0,0-.61-.24.86.86,0,0,0-.64.26.84.84,0,0,0-.26.61.79.79,0,0,0,.25.59,1,1,0,0,0,1.26,0A.8.8,0,0,0,25.8,33.72Z"/><path class="cls-5" d="M27.83,32.51a1.17,1.17,0,0,1,.87.37,1.28,1.28,0,0,1,0,1.77,1.22,1.22,0,0,1-1.75,0,1.27,1.27,0,0,1,0-1.77A1.18,1.18,0,0,1,27.83,32.51Zm0,2.16a.82.82,0,0,0,.61-.26.88.88,0,0,0,.25-.63.9.9,0,0,0-.26-.64.82.82,0,0,0-1.22,0,.9.9,0,0,0-.26.64.88.88,0,0,0,.25.63A.82.82,0,0,0,27.83,34.67Z"/><path class="cls-5" d="M32.19,31.69a1.72,1.72,0,0,1,.85.22,1.61,1.61,0,0,1,.61.61,1.69,1.69,0,0,1,0,1.68,1.61,1.61,0,0,1-.61.61,1.66,1.66,0,0,1-.84.22,1.69,1.69,0,0,1-.84-.22,1.59,1.59,0,0,1-.61-.6,1.64,1.64,0,0,1-.22-.84,1.67,1.67,0,0,1,.22-.84,1.62,1.62,0,0,1,.6-.61A1.64,1.64,0,0,1,32.19,31.69Zm0,3a1.26,1.26,0,0,0,.92-.37,1.24,1.24,0,0,0,.38-.92,1.26,1.26,0,0,0-.38-.93,1.25,1.25,0,0,0-.91-.38,1.22,1.22,0,0,0-.91.38,1.28,1.28,0,0,0-.37.92,1.25,1.25,0,0,0,.38.92A1.23,1.23,0,0,0,32.2,34.65Z"/><path class="cls-5" d="M36.47,34.94h-.36V33.81a2.49,2.49,0,0,0,0-.53A.69.69,0,0,0,36,33a.43.43,0,0,0-.18-.14.67.67,0,0,0-.27,0,.66.66,0,0,0-.31.08.77.77,0,0,0-.26.22.8.8,0,0,0-.15.29,3,3,0,0,0,0,.62v.88h-.36V32.57h.36v.36a1.06,1.06,0,0,1,.83-.42.85.85,0,0,1,.46.13.82.82,0,0,1,.31.36,1.84,1.84,0,0,1,.1.71Z"/><path class="cls-5" d="M37.35,34.94H37V31.69h.36Z"/><path class="cls-5" d="M39.92,32.57l-1.4,3.2h-.37l.46-1-1-2.16H38l.78,1.73.75-1.73Z"/></g><g class="cls-4"><path class="cls-2" d="M8.41,45.38h-1v-.27h1Z"/><path class="cls-2" d="M10.66,46.32h-.31V45.08H9.09v1.24H8.78V43.7h.31v1.08h1.26V43.7h.31Z"/><path class="cls-2" d="M11.3,43.63a.23.23,0,0,1,.16.39.22.22,0,0,1-.16.07.21.21,0,0,1-.16-.07.23.23,0,0,1,0-.32A.22.22,0,0,1,11.3,43.63Zm.15,2.69h-.3v-2h.3Z"/><path class="cls-2" d="M13.86,45.86a1.81,1.81,0,0,1-.07.57.8.8,0,0,1-.2.32.88.88,0,0,1-.32.2,1.22,1.22,0,0,1-.41.07,1,1,0,0,1-1-.65h.32a.73.73,0,0,0,.69.37.89.89,0,0,0,.4-.09.52.52,0,0,0,.25-.23,1,1,0,0,0,.07-.44v0a.91.91,0,0,1-.34.24,1,1,0,0,1-.41.08,1,1,0,0,1-.71-.29,1,1,0,0,1,0-1.39,1,1,0,0,1,.72-.29,1,1,0,0,1,.72.34v-.29h.3Zm-.29-.55a.68.68,0,0,0-.21-.51.69.69,0,0,0-.5-.2.71.71,0,0,0-.53.22.7.7,0,0,0-.21.5.65.65,0,0,0,.21.49.79.79,0,0,0,1,0A.67.67,0,0,0,13.58,45.31Z"/><path class="cls-2" d="M16,46.32h-.3v-.93a3.06,3.06,0,0,0,0-.38.59.59,0,0,0-.07-.21.39.39,0,0,0-.16-.15.51.51,0,0,0-.24-.05.57.57,0,0,0-.26.06.65.65,0,0,0-.22.18.68.68,0,0,0-.12.24,2.42,2.42,0,0,0,0,.52v.72h-.3V43.63h.3v1a.88.88,0,0,1,.69-.34.7.7,0,0,1,.38.11.69.69,0,0,1,.26.3,1.52,1.52,0,0,1,.09.59Z"/><path class="cls-2" d="M17.36,45.38h-1v-.27h1Z"/><path class="cls-2" d="M19.48,46.32H19.1l-.93-1.2h-.11v1.2h-.31V43.7h.54a3.13,3.13,0,0,1,.59,0,.74.74,0,0,1,.28.13.61.61,0,0,1,.19.23.7.7,0,0,1,.07.31.66.66,0,0,1-.22.52.94.94,0,0,1-.64.2Zm-1.42-1.5h.42a.85.85,0,0,0,.47-.1.35.35,0,0,0,.15-.32.35.35,0,0,0-.15-.32.84.84,0,0,0-.46-.1h-.43Z"/><path class="cls-2" d="M21.8,45.39H20.09a.75.75,0,0,0,.22.52.66.66,0,0,0,.47.2.78.78,0,0,0,.72-.46l.25.13a1.22,1.22,0,0,1-.4.46,1,1,0,0,1-.55.15,1,1,0,0,1-.73-.3,1.07,1.07,0,0,1,0-1.46.94.94,0,0,1,.71-.3,1,1,0,0,1,.71.29A1.11,1.11,0,0,1,21.8,45.39Zm-.33-.26a.63.63,0,0,0-.24-.39.72.72,0,0,0-.44-.14.66.66,0,0,0-.67.53Z"/><path class="cls-2" d="M23.23,44.59l-.19.2a.61.61,0,0,0-.39-.2.26.26,0,0,0-.19.07.23.23,0,0,0-.08.17.24.24,0,0,0,.08.18,1.52,1.52,0,0,0,.3.19,1.11,1.11,0,0,1,.33.25.5.5,0,0,1,.12.33.57.57,0,0,1-.17.42.59.59,0,0,1-.43.17.72.72,0,0,1-.59-.3l.19-.21a.53.53,0,0,0,.39.23.33.33,0,0,0,.23-.09.28.28,0,0,0,.1-.21.26.26,0,0,0-.09-.2,1.41,1.41,0,0,0-.3-.19,1,1,0,0,1-.32-.24.51.51,0,0,1-.11-.34.49.49,0,0,1,.16-.36.57.57,0,0,1,.41-.15A.81.81,0,0,1,23.23,44.59Z"/><path class="cls-2" d="M24.53,44.32a1,1,0,0,1,.72.3,1.05,1.05,0,0,1,0,1.46,1,1,0,0,1-1.45,0,1.05,1.05,0,0,1,0-1.46A1,1,0,0,1,24.53,44.32Zm0,1.79a.68.68,0,0,0,.51-.22.73.73,0,0,0,.21-.52.74.74,0,0,0-.21-.53.68.68,0,0,0-1,0,.75.75,0,0,0-.21.53.73.73,0,0,0,.2.52A.68.68,0,0,0,24.53,46.1Z"/><path class="cls-2" d="M26.21,46.32h-.29V43.63h.29Z"/><path class="cls-2" d="M28.35,46.32h-.3V46a.88.88,0,0,1-.69.34.7.7,0,0,1-.38-.11.68.68,0,0,1-.26-.3,1.54,1.54,0,0,1-.09-.59v-1h.29v.93a2,2,0,0,0,0,.44.56.56,0,0,0,.09.2.36.36,0,0,0,.15.12.59.59,0,0,0,.48,0,.65.65,0,0,0,.21-.18.7.7,0,0,0,.12-.24,2.49,2.49,0,0,0,0-.52v-.72h.3Z"/><path class="cls-2" d="M29.75,44.62h-.39V46s0,.08,0,.09l.11,0h.17v.25l-.26,0a.34.34,0,0,1-.25-.08.37.37,0,0,1-.08-.27V44.62h-.34v-.26h.34v-.73h.3v.73h.39Z"/><path class="cls-2" d="M30.17,43.63a.23.23,0,1,1,0,.46A.21.21,0,0,1,30,44a.23.23,0,0,1,0-.32A.21.21,0,0,1,30.17,43.63Zm.15,2.69H30v-2h.3Z"/><path class="cls-2" d="M31.71,44.32a1,1,0,0,1,.72.3,1.05,1.05,0,0,1,0,1.46,1,1,0,0,1-1.45,0,1.05,1.05,0,0,1,0-1.46A1,1,0,0,1,31.71,44.32Zm0,1.79a.68.68,0,0,0,.51-.22.73.73,0,0,0,.21-.52.75.75,0,0,0-.21-.53.68.68,0,0,0-.51-.22.67.67,0,0,0-.5.22.75.75,0,0,0-.21.53.73.73,0,0,0,.21.52A.68.68,0,0,0,31.71,46.1Z"/><path class="cls-2" d="M34.84,46.32h-.29v-.93a2.13,2.13,0,0,0,0-.44.59.59,0,0,0-.09-.2.36.36,0,0,0-.15-.12.59.59,0,0,0-.48,0,.65.65,0,0,0-.21.18.7.7,0,0,0-.12.24,2.49,2.49,0,0,0,0,.52v.72h-.3v-2h.3v.29a.88.88,0,0,1,.69-.34.7.7,0,0,1,.38.11.68.68,0,0,1,.26.3,1.54,1.54,0,0,1,.09.59Z"/><path class="cls-2" d="M37.55,46.32h-1.3V43.7h.31V46h1Z"/><path class="cls-2" d="M38.8,44.32a1,1,0,0,1,.72.3,1.05,1.05,0,0,1,0,1.46,1,1,0,0,1-1.45,0,1.05,1.05,0,0,1,0-1.46A1,1,0,0,1,38.8,44.32Zm0,1.79a.68.68,0,0,0,.51-.22.73.73,0,0,0,.21-.52.75.75,0,0,0-.21-.53.68.68,0,0,0-.51-.22.67.67,0,0,0-.5.22.75.75,0,0,0-.21.53.73.73,0,0,0,.21.52A.68.68,0,0,0,38.8,46.1Z"/><path class="cls-2" d="M42.17,45.86a1.81,1.81,0,0,1-.07.57.8.8,0,0,1-.2.32.88.88,0,0,1-.32.2,1.22,1.22,0,0,1-.41.07,1,1,0,0,1-1-.65h.32a.73.73,0,0,0,.69.37.89.89,0,0,0,.4-.09.52.52,0,0,0,.25-.23,1,1,0,0,0,.07-.44v0a.91.91,0,0,1-.34.24,1,1,0,0,1-.41.08,1,1,0,0,1-.71-.29,1,1,0,0,1,0-1.39,1,1,0,0,1,.72-.29,1,1,0,0,1,.72.34v-.29h.3Zm-.29-.55a.68.68,0,0,0-.21-.51.69.69,0,0,0-.5-.2.71.71,0,0,0-.53.22.7.7,0,0,0-.21.5.65.65,0,0,0,.21.49.79.79,0,0,0,1,0A.67.67,0,0,0,41.88,45.31Z"/><path class="cls-2" d="M43.56,44.32a1,1,0,0,1,.72.3,1.05,1.05,0,0,1,0,1.46,1,1,0,0,1-1.45,0,1.05,1.05,0,0,1,0-1.46A1,1,0,0,1,43.56,44.32Zm0,1.79a.68.68,0,0,0,.51-.22.73.73,0,0,0,.21-.52.74.74,0,0,0-.21-.53.68.68,0,0,0-1,0,.75.75,0,0,0-.21.53.73.73,0,0,0,.2.52A.68.68,0,0,0,43.56,46.1Z"/></g><g class="cls-4"><path class="cls-2" d="M8.41,51.38h-1v-.27h1Z"/><path class="cls-2" d="M11.25,51.84a1.39,1.39,0,0,1-1.16.54,1.39,1.39,0,0,1-1-.39,1.42,1.42,0,0,1-.21-1.69,1.32,1.32,0,0,1,.51-.5,1.44,1.44,0,0,1,.71-.18,1.54,1.54,0,0,1,.68.14,1.33,1.33,0,0,1,.5.43l-.24.18a1.15,1.15,0,0,0-.92-.45,1.07,1.07,0,0,0-.77.32A1,1,0,0,0,9,51a1,1,0,0,0,.32.76,1.17,1.17,0,0,0,1.7-.13Z"/><path class="cls-2" d="M12.59,50.32a1,1,0,0,1,.72.3,1.05,1.05,0,0,1,0,1.46,1,1,0,0,1-1.45,0,1.05,1.05,0,0,1,0-1.46A1,1,0,0,1,12.59,50.32Zm0,1.79a.68.68,0,0,0,.51-.22.73.73,0,0,0,.21-.52.74.74,0,0,0-.21-.53.68.68,0,0,0-1,0,.75.75,0,0,0-.21.53.73.73,0,0,0,.2.52A.68.68,0,0,0,12.59,52.1Z"/><path class="cls-2" d="M16.91,52.32h-.3V51.25a1.62,1.62,0,0,0,0-.37.37.37,0,0,0-.13-.2.42.42,0,0,0-.27-.08.52.52,0,0,0-.31.11.55.55,0,0,0-.2.29,1.93,1.93,0,0,0-.06.55v.77h-.29v-1a2,2,0,0,0,0-.42.38.38,0,0,0-.13-.21.41.41,0,0,0-.26-.08.51.51,0,0,0-.3.1.58.58,0,0,0-.21.26,1.46,1.46,0,0,0-.07.53v.83H14v-2h.29v.28a.76.76,0,0,1,.63-.33.66.66,0,0,1,.37.11.6.6,0,0,1,.24.31.87.87,0,0,1,.3-.31.76.76,0,0,1,.39-.11.65.65,0,0,1,.48.2,1.05,1.05,0,0,1,.2.74Z"/><path class="cls-2" d="M20.27,52.32H20V51.25a1.62,1.62,0,0,0,0-.37.37.37,0,0,0-.13-.2.42.42,0,0,0-.27-.08.52.52,0,0,0-.31.11A.55.55,0,0,0,19,51a1.93,1.93,0,0,0-.06.55v.77h-.29v-1a2,2,0,0,0,0-.42.38.38,0,0,0-.13-.21.41.41,0,0,0-.26-.08.51.51,0,0,0-.3.1.58.58,0,0,0-.21.26,1.46,1.46,0,0,0-.07.53v.83h-.29v-2h.29v.28a.76.76,0,0,1,.63-.33.66.66,0,0,1,.37.11.6.6,0,0,1,.24.31.87.87,0,0,1,.3-.31.76.76,0,0,1,.39-.11.65.65,0,0,1,.48.2,1.05,1.05,0,0,1,.2.74Z"/><path class="cls-2" d="M22.66,51.39H20.95a.76.76,0,0,0,.22.52.66.66,0,0,0,.48.2.78.78,0,0,0,.72-.46l.25.13a1.22,1.22,0,0,1-.4.46,1,1,0,0,1-.55.15,1,1,0,0,1-.73-.3,1.07,1.07,0,0,1,0-1.46,1,1,0,0,1,.72-.3,1,1,0,0,1,.71.29A1.1,1.1,0,0,1,22.66,51.39Zm-.33-.26a.63.63,0,0,0-.24-.39.72.72,0,0,0-.44-.14.66.66,0,0,0-.67.53Z"/><path class="cls-2" d="M23.89,50.39l-.15.25a.25.25,0,0,0-.12,0,.26.26,0,0,0-.2.11.73.73,0,0,0-.13.29,3.07,3.07,0,0,0,0,.64v.67h-.3v-2h.3v.21a.77.77,0,0,1,.18-.2.35.35,0,0,1,.21-.06A.57.57,0,0,1,23.89,50.39Z"/><path class="cls-2" d="M26.06,51.92a1,1,0,0,1-.4.34,1.25,1.25,0,0,1-.54.12,1,1,0,0,1-.75-.3,1,1,0,0,1-.3-.73,1,1,0,0,1,.3-.74,1.06,1.06,0,0,1,.79-.31,1.12,1.12,0,0,1,.53.13.93.93,0,0,1,.38.35l-.23.15a.82.82,0,0,0-.68-.34.78.78,0,0,0-.56.21.7.7,0,0,0-.23.53.74.74,0,0,0,.22.54.76.76,0,0,0,.56.23.86.86,0,0,0,.69-.34Z"/><path class="cls-2" d="M26.58,49.63a.23.23,0,1,1,0,.46.21.21,0,0,1-.16-.07.23.23,0,0,1,0-.32A.21.21,0,0,1,26.58,49.63Zm.15,2.69h-.3v-2h.3Z"/><path class="cls-2" d="M29.13,52.32h-.29V52a1,1,0,0,1-.74.35,1,1,0,0,1-.71-.31,1,1,0,0,1-.3-.73,1,1,0,0,1,.3-.73,1,1,0,0,1,.73-.3.9.9,0,0,1,.72.35v-.3h.29Zm-1-.21a.7.7,0,0,0,.51-.21.73.73,0,0,0,.22-.54.74.74,0,0,0-.21-.54.69.69,0,0,0-.52-.22.68.68,0,0,0-.52.22.76.76,0,0,0,0,1.06A.69.69,0,0,0,28.12,52.11Z"/><path class="cls-2" d="M29.89,52.32H29.6V49.63h.29Z"/><path class="cls-2" d="M33,51.27a1.79,1.79,0,0,1-.08.61.76.76,0,0,1-.29.36.82.82,0,0,1-.48.14,1.06,1.06,0,0,1-.39-.07.78.78,0,0,1-.29-.2.75.75,0,0,1-.17-.28,2.12,2.12,0,0,1,0-.56V49.7h.31v1.58a3.23,3.23,0,0,0,0,.37.53.53,0,0,0,.08.22.48.48,0,0,0,.2.17.64.64,0,0,0,.29.06.52.52,0,0,0,.33-.11.5.5,0,0,0,.18-.26,1.79,1.79,0,0,0,0-.44V49.7H33Z"/><path class="cls-2" d="M34.61,50.59l-.19.2a.6.6,0,0,0-.39-.2.26.26,0,0,0-.19.07.22.22,0,0,0-.08.17.24.24,0,0,0,.08.18,1.54,1.54,0,0,0,.3.19,1.11,1.11,0,0,1,.33.25.49.49,0,0,1,.12.33.58.58,0,0,1-.17.42.59.59,0,0,1-.43.17.72.72,0,0,1-.59-.3l.19-.21a.53.53,0,0,0,.39.23.33.33,0,0,0,.23-.09.28.28,0,0,0,.1-.21.26.26,0,0,0-.09-.2,1.4,1.4,0,0,0-.3-.19,1,1,0,0,1-.32-.24.51.51,0,0,1-.11-.34.49.49,0,0,1,.16-.36.57.57,0,0,1,.41-.15A.82.82,0,0,1,34.61,50.59Z"/><path class="cls-2" d="M36.91,51.39H35.2a.76.76,0,0,0,.22.52.66.66,0,0,0,.48.2.78.78,0,0,0,.72-.46l.25.13a1.22,1.22,0,0,1-.4.46,1,1,0,0,1-.55.15,1,1,0,0,1-.73-.3,1.07,1.07,0,0,1,0-1.46,1,1,0,0,1,.72-.3,1,1,0,0,1,.71.29A1.1,1.1,0,0,1,36.91,51.39Zm-.33-.26a.63.63,0,0,0-.24-.39.72.72,0,0,0-.44-.14.66.66,0,0,0-.67.53Z"/><path class="cls-2" d="M39.55,52.32h-1.3V49.7h.31V52h1Z"/><path class="cls-2" d="M40,49.63a.23.23,0,0,1,.16.39.22.22,0,0,1-.16.07.21.21,0,0,1-.16-.07.23.23,0,0,1,0-.32A.22.22,0,0,1,40,49.63Zm.15,2.69h-.3v-2h.3Z"/><path class="cls-2" d="M42.5,51.92a1,1,0,0,1-.4.34,1.25,1.25,0,0,1-.54.12,1,1,0,0,1-.75-.3,1,1,0,0,1-.3-.73,1,1,0,0,1,.3-.74,1.07,1.07,0,0,1,.79-.31,1.13,1.13,0,0,1,.53.13.93.93,0,0,1,.38.35l-.23.15a.82.82,0,0,0-.69-.34.79.79,0,0,0-.56.21.7.7,0,0,0-.23.53.75.75,0,0,0,.22.54.76.76,0,0,0,.56.23.86.86,0,0,0,.69-.34Z"/><path class="cls-2" d="M44.83,51.39H43.12a.75.75,0,0,0,.22.52.66.66,0,0,0,.47.2.78.78,0,0,0,.72-.46l.25.13a1.22,1.22,0,0,1-.4.46,1,1,0,0,1-.55.15,1,1,0,0,1-.73-.3,1.07,1.07,0,0,1,0-1.46.94.94,0,0,1,.71-.3,1,1,0,0,1,.71.29A1.11,1.11,0,0,1,44.83,51.39Zm-.33-.26a.63.63,0,0,0-.24-.39.72.72,0,0,0-.44-.14.66.66,0,0,0-.67.53Z"/><path class="cls-2" d="M47,52.32h-.29v-.93a2.13,2.13,0,0,0,0-.44.59.59,0,0,0-.09-.2.36.36,0,0,0-.15-.12.59.59,0,0,0-.48,0,.65.65,0,0,0-.21.18.7.7,0,0,0-.12.24,2.49,2.49,0,0,0,0,.52v.72h-.3v-2h.3v.29a.88.88,0,0,1,.69-.34.7.7,0,0,1,.38.11.68.68,0,0,1,.26.3,1.54,1.54,0,0,1,.09.59Z"/><path class="cls-2" d="M48.44,50.59l-.19.2a.61.61,0,0,0-.39-.2.26.26,0,0,0-.19.07.23.23,0,0,0-.08.17.24.24,0,0,0,.08.18,1.52,1.52,0,0,0,.3.19,1.11,1.11,0,0,1,.33.25.5.5,0,0,1,.12.33.57.57,0,0,1-.17.42.59.59,0,0,1-.43.17.72.72,0,0,1-.59-.3l.19-.21a.53.53,0,0,0,.39.23.33.33,0,0,0,.23-.09.28.28,0,0,0,.1-.21.26.26,0,0,0-.09-.2,1.41,1.41,0,0,0-.3-.19,1,1,0,0,1-.32-.24.51.51,0,0,1-.11-.34.49.49,0,0,1,.16-.36.57.57,0,0,1,.41-.15A.81.81,0,0,1,48.44,50.59Z"/><path class="cls-2" d="M50.74,51.39H49a.75.75,0,0,0,.22.52.66.66,0,0,0,.47.2.78.78,0,0,0,.72-.46l.25.13a1.22,1.22,0,0,1-.4.46,1,1,0,0,1-.55.15,1,1,0,0,1-.73-.3,1.07,1.07,0,0,1,0-1.46.94.94,0,0,1,.71-.3,1,1,0,0,1,.71.29A1.11,1.11,0,0,1,50.74,51.39Zm-.33-.26a.63.63,0,0,0-.24-.39.72.72,0,0,0-.44-.14.66.66,0,0,0-.67.53Z"/></g><g class="cls-4"><path class="cls-2" d="M8.41,57.38h-1v-.27h1Z"/><path class="cls-2" d="M10.55,57.27a1.81,1.81,0,0,1-.08.61.76.76,0,0,1-.29.36.82.82,0,0,1-.48.14,1.06,1.06,0,0,1-.39-.07.78.78,0,0,1-.29-.2.78.78,0,0,1-.17-.28,2.12,2.12,0,0,1,0-.56V55.7H9.1v1.58a3.55,3.55,0,0,0,0,.37.52.52,0,0,0,.08.22.47.47,0,0,0,.2.17.64.64,0,0,0,.29.06A.52.52,0,0,0,10,58a.5.5,0,0,0,.18-.26,1.79,1.79,0,0,0,0-.44V55.7h.31Z"/><path class="cls-2" d="M12.81,58.32h-.29v-.93a2.13,2.13,0,0,0,0-.44.59.59,0,0,0-.09-.2.36.36,0,0,0-.15-.12.59.59,0,0,0-.48,0,.65.65,0,0,0-.21.18.7.7,0,0,0-.12.24,2.49,2.49,0,0,0,0,.52v.72h-.3v-2h.3v.29a.88.88,0,0,1,.69-.34.7.7,0,0,1,.38.11.68.68,0,0,1,.26.3,1.54,1.54,0,0,1,.09.59Z"/><path class="cls-2" d="M13.54,58.32h-.29V55.63h.29Z"/><path class="cls-2" d="M14.11,55.63a.23.23,0,1,1,0,.46.21.21,0,0,1-.16-.07.23.23,0,0,1,0-.32A.21.21,0,0,1,14.11,55.63Zm.15,2.69H14v-2h.3Z"/><path class="cls-2" d="M17.61,58.32h-.3V57.25a1.63,1.63,0,0,0,0-.37.37.37,0,0,0-.13-.2.42.42,0,0,0-.27-.08.53.53,0,0,0-.31.11.55.55,0,0,0-.2.29,2,2,0,0,0-.06.55v.77H16v-1a2.12,2.12,0,0,0,0-.42.38.38,0,0,0-.13-.21.41.41,0,0,0-.26-.08.51.51,0,0,0-.3.1.6.6,0,0,0-.21.26,1.49,1.49,0,0,0-.07.53v.83h-.29v-2H15v.28a.76.76,0,0,1,.63-.33.66.66,0,0,1,.37.11.6.6,0,0,1,.24.31.87.87,0,0,1,.3-.31.76.76,0,0,1,.39-.11.65.65,0,0,1,.48.2,1.06,1.06,0,0,1,.2.74Z"/><path class="cls-2" d="M18.19,55.63a.23.23,0,0,1,.16.39.22.22,0,0,1-.16.07A.21.21,0,0,1,18,56a.23.23,0,0,1,0-.32A.22.22,0,0,1,18.19,55.63Zm.15,2.69H18v-2h.3Z"/><path class="cls-2" d="M19.7,56.62h-.39V58s0,.08,0,.09l.11,0h.17v.25l-.26,0a.34.34,0,0,1-.25-.08A.37.37,0,0,1,19,58V56.62h-.34v-.26H19v-.73h.3v.73h.39Z"/><path class="cls-2" d="M21.94,57.39H20.22a.76.76,0,0,0,.22.52.66.66,0,0,0,.48.2.78.78,0,0,0,.72-.46l.25.13a1.22,1.22,0,0,1-.4.46,1,1,0,0,1-.55.15,1,1,0,0,1-.73-.3,1.07,1.07,0,0,1,0-1.46,1,1,0,0,1,.72-.3,1,1,0,0,1,.71.29A1.1,1.1,0,0,1,21.94,57.39Zm-.33-.26a.63.63,0,0,0-.24-.39.72.72,0,0,0-.44-.14.66.66,0,0,0-.67.53Z"/><path class="cls-2" d="M24.29,58.32H24V58a1,1,0,0,1-.74.35,1,1,0,0,1-.71-.3,1,1,0,0,1-.29-.73,1,1,0,0,1,.3-.73,1,1,0,0,1,.73-.3.9.9,0,0,1,.72.35v-1h.29Zm-1-.21a.71.71,0,0,0,.51-.21.71.71,0,0,0,.22-.54.75.75,0,0,0-.21-.54.73.73,0,0,0-1,0,.76.76,0,0,0,0,1.06A.69.69,0,0,0,23.29,58.11Z"/><path class="cls-2" d="M26.83,56.88a.8.8,0,0,1,.38.27.67.67,0,0,1,.13.41.71.71,0,0,1-.24.55.89.89,0,0,1-.62.22h-.74V55.7h.53a1,1,0,0,1,.63.17.58.58,0,0,1,.22.49A.59.59,0,0,1,26.83,56.88ZM26,56.77h.12a.93.93,0,0,0,.48-.1.35.35,0,0,0,.16-.32q0-.36-.49-.36H26ZM26,58h.29a1.09,1.09,0,0,0,.4-.05.45.45,0,0,0,.2-.17.4.4,0,0,0,.08-.23.45.45,0,0,0,0-.2.46.46,0,0,0-.13-.16.59.59,0,0,0-.22-.1,2.08,2.08,0,0,0-.46,0H26Z"/><path class="cls-2" d="M29.7,58.32h-.29V58a1,1,0,0,1-.74.35,1,1,0,0,1-.71-.31,1,1,0,0,1-.3-.73,1,1,0,0,1,.3-.73,1,1,0,0,1,.73-.3.9.9,0,0,1,.72.35v-.3h.29Zm-1-.21a.7.7,0,0,0,.51-.21.73.73,0,0,0,.22-.54.74.74,0,0,0-.21-.54.69.69,0,0,0-.52-.22.68.68,0,0,0-.52.22.76.76,0,0,0,0,1.06A.69.69,0,0,0,28.7,58.11Z"/><path class="cls-2" d="M32.11,57.92a1,1,0,0,1-.4.34,1.25,1.25,0,0,1-.54.12,1,1,0,0,1-.75-.3,1,1,0,0,1-.3-.73,1,1,0,0,1,.3-.74,1.06,1.06,0,0,1,.79-.31,1.12,1.12,0,0,1,.53.13.93.93,0,0,1,.38.35l-.23.15a.82.82,0,0,0-.68-.34.78.78,0,0,0-.56.21.7.7,0,0,0-.23.53.74.74,0,0,0,.22.54.76.76,0,0,0,.56.23.86.86,0,0,0,.69-.34Z"/><path class="cls-2" d="M34.06,58.32h-.43l-.92-.83v.83h-.3V55.63h.3V57.1l.84-.74H34l-1.08.93Z"/><path class="cls-2" d="M36,58.32h-.3V58a.88.88,0,0,1-.69.34.7.7,0,0,1-.38-.11.68.68,0,0,1-.26-.3,1.54,1.54,0,0,1-.09-.59v-1h.29v.93a2,2,0,0,0,0,.44.56.56,0,0,0,.09.2.36.36,0,0,0,.15.12.59.59,0,0,0,.48,0,.65.65,0,0,0,.21-.18.7.7,0,0,0,.12-.24,2.49,2.49,0,0,0,0-.52v-.72H36Z"/><path class="cls-2" d="M36.8,56.66a.9.9,0,0,1,.72-.35,1,1,0,0,1,.72.3,1,1,0,0,1,.3.73,1,1,0,0,1-.29.73,1,1,0,0,1-.71.3A1,1,0,0,1,36.8,58v1h-.29V56.37h.29Zm.72,1.45a.69.69,0,0,0,.51-.22.77.77,0,0,0,0-1.06.73.73,0,0,0-1,0,.74.74,0,0,0-.21.54.73.73,0,0,0,.21.54A.71.71,0,0,0,37.52,58.11Z"/></g><g class="cls-4"><path class="cls-3" d="M23.92,85.56a1.32,1.32,0,0,1-1.9.13,1.24,1.24,0,0,1-.19-1.47,1.15,1.15,0,0,1,.45-.43,1.25,1.25,0,0,1,.62-.16,1.34,1.34,0,0,1,.59.13,1.16,1.16,0,0,1,.44.37l-.21.16a1,1,0,0,0-.8-.39.93.93,0,0,0-.67.28.9.9,0,0,0-.28.67.89.89,0,0,0,.28.67,1,1,0,0,0,1.48-.11Z"/><path class="cls-3" d="M24.51,86h-.26V83.64h.26Z"/><path class="cls-3" d="M25,83.64a.2.2,0,0,1,.14.34A.19.19,0,0,1,25,84a.18.18,0,0,1-.14-.06.2.2,0,0,1,.14-.34ZM25.13,86h-.26v-1.7h.26Z"/><path class="cls-3" d="M27.2,85.63a.85.85,0,0,1-.35.3,1.09,1.09,0,0,1-.47.1.9.9,0,0,1-.66-.26.85.85,0,0,1-.26-.63.88.88,0,0,1,.27-.64.93.93,0,0,1,.69-.27,1,1,0,0,1,.46.11.82.82,0,0,1,.33.31l-.2.13a.72.72,0,0,0-.6-.3.68.68,0,0,0-.49.19.61.61,0,0,0-.2.46.65.65,0,0,0,.19.47.66.66,0,0,0,.49.2.74.74,0,0,0,.6-.3Z"/><path class="cls-3" d="M28.89,86h-.37l-.8-.72V86h-.26V83.64h.26v1.29l.73-.64h.38l-.94.81Z"/><path class="cls-3" d="M32.42,86h-.27l-.21-1.56L31.17,86h-.08l-.78-1.57L30.1,86h-.26l.33-2.29h.07l.9,1.82L32,83.69h.07Z"/><path class="cls-3" d="M34.46,85.17H33a.66.66,0,0,0,.19.45.57.57,0,0,0,.42.17.68.68,0,0,0,.63-.4l.22.11a1.08,1.08,0,0,1-.35.4.87.87,0,0,1-.48.13.84.84,0,0,1-.63-.26.94.94,0,0,1,0-1.28.83.83,0,0,1,.62-.27.84.84,0,0,1,.62.25A1,1,0,0,1,34.46,85.17Zm-.29-.23a.55.55,0,0,0-.21-.34.62.62,0,0,0-.38-.12.57.57,0,0,0-.58.46Z"/><path class="cls-3" d="M35.06,85.45a.21.21,0,0,1,.15.06.2.2,0,0,1,.06.15.21.21,0,1,1-.42,0,.2.2,0,0,1,.06-.15A.2.2,0,0,1,35.06,85.45Zm.13-.25h-.27V83.48h.27Z"/></g></g></g></svg>